<mxfile host="app.diagrams.net" agent="Mozilla/5.0 (Windows NT 10.0; Win64; x64) AppleWebKit/537.36 (KHTML, like Gecko) Chrome/138.0.0.0 Safari/537.36" version="28.1.1">
  <diagram name="‫עמוד-1‬" id="VKRF5TG3Z5PPjeqUg_kx">
    <mxGraphModel dx="2977" dy="2675" grid="1" gridSize="10" guides="1" tooltips="1" connect="1" arrows="1" fold="1" page="1" pageScale="1" pageWidth="827" pageHeight="1169" math="0" shadow="0">
      <root>
        <mxCell id="0" />
        <mxCell id="1" parent="0" />
        <mxCell id="ZXcEOGlHOmT0OJzu-Zjj-112" value="users" style="rounded=0;whiteSpace=wrap;html=1;fontSize=10;fontStyle=1" vertex="1" parent="1">
          <mxGeometry x="110" y="60" width="60" height="40" as="geometry" />
        </mxCell>
        <mxCell id="ZXcEOGlHOmT0OJzu-Zjj-120" style="edgeStyle=orthogonalEdgeStyle;rounded=0;orthogonalLoop=1;jettySize=auto;html=1;exitX=0.5;exitY=1;exitDx=0;exitDy=0;entryX=0.5;entryY=0;entryDx=0;entryDy=0;fontSize=10;" edge="1" parent="1" source="ZXcEOGlHOmT0OJzu-Zjj-113" target="ZXcEOGlHOmT0OJzu-Zjj-112">
          <mxGeometry relative="1" as="geometry" />
        </mxCell>
        <mxCell id="ZXcEOGlHOmT0OJzu-Zjj-113" value="&lt;span style=&quot;font-family: Calibri, sans-serif; text-align: left; white-space-collapse: preserve;&quot;&gt;first_name &lt;/span&gt;" style="ellipse;whiteSpace=wrap;html=1;fontSize=10;" vertex="1" parent="1">
          <mxGeometry x="160" y="10" width="70" height="30" as="geometry" />
        </mxCell>
        <mxCell id="ZXcEOGlHOmT0OJzu-Zjj-125" style="edgeStyle=orthogonalEdgeStyle;rounded=0;orthogonalLoop=1;jettySize=auto;html=1;exitX=1;exitY=0.5;exitDx=0;exitDy=0;fontSize=10;" edge="1" parent="1">
          <mxGeometry relative="1" as="geometry">
            <mxPoint x="90" y="100" as="targetPoint" />
            <mxPoint x="30" y="139.96" as="sourcePoint" />
          </mxGeometry>
        </mxCell>
        <mxCell id="ZXcEOGlHOmT0OJzu-Zjj-114" value="&lt;br style=&quot;text-align: left;&quot;&gt;&lt;span style=&quot;text-align: left;&quot; id=&quot;docs-internal-guid-f5bd9339-7fff-085d-3fbc-36885e1c4c5a&quot;&gt;&lt;span style=&quot;font-family: Calibri, sans-serif; color: rgb(0, 0, 0); background-color: transparent; font-variant-numeric: normal; font-variant-east-asian: normal; font-variant-alternates: normal; font-variant-position: normal; font-variant-emoji: normal; vertical-align: baseline; white-space-collapse: preserve;&quot;&gt;user_id &lt;/span&gt;&lt;/span&gt;" style="ellipse;whiteSpace=wrap;html=1;fontSize=10;" vertex="1" parent="1">
          <mxGeometry y="120" width="60" height="40" as="geometry" />
        </mxCell>
        <mxCell id="ZXcEOGlHOmT0OJzu-Zjj-218" style="edgeStyle=orthogonalEdgeStyle;rounded=0;orthogonalLoop=1;jettySize=auto;html=1;exitX=1;exitY=0.5;exitDx=0;exitDy=0;entryX=0.25;entryY=0;entryDx=0;entryDy=0;" edge="1" parent="1" source="ZXcEOGlHOmT0OJzu-Zjj-115" target="ZXcEOGlHOmT0OJzu-Zjj-112">
          <mxGeometry relative="1" as="geometry">
            <Array as="points">
              <mxPoint x="140" y="40" />
              <mxPoint x="125" y="40" />
            </Array>
          </mxGeometry>
        </mxCell>
        <mxCell id="ZXcEOGlHOmT0OJzu-Zjj-115" value="&lt;br style=&quot;text-align: left;&quot;&gt;&lt;span style=&quot;text-align: left;&quot; id=&quot;docs-internal-guid-0b484c07-7fff-1aa9-7cc4-8bd676628e3d&quot;&gt;&lt;span style=&quot;font-family: Calibri, sans-serif; color: rgb(0, 0, 0); background-color: transparent; font-variant-numeric: normal; font-variant-east-asian: normal; font-variant-alternates: normal; font-variant-position: normal; font-variant-emoji: normal; vertical-align: baseline; white-space-collapse: preserve;&quot;&gt;password &lt;/span&gt;&lt;/span&gt;" style="ellipse;whiteSpace=wrap;html=1;fontSize=10;" vertex="1" parent="1">
          <mxGeometry x="90" y="10" width="60" height="30" as="geometry" />
        </mxCell>
        <mxCell id="ZXcEOGlHOmT0OJzu-Zjj-122" style="edgeStyle=orthogonalEdgeStyle;rounded=0;orthogonalLoop=1;jettySize=auto;html=1;exitX=1;exitY=0.5;exitDx=0;exitDy=0;fontSize=10;" edge="1" parent="1" source="ZXcEOGlHOmT0OJzu-Zjj-116">
          <mxGeometry relative="1" as="geometry">
            <mxPoint x="110" y="80" as="targetPoint" />
            <Array as="points">
              <mxPoint x="60" y="40" />
              <mxPoint x="111" y="40" />
              <mxPoint x="111" y="60" />
              <mxPoint x="110" y="60" />
            </Array>
          </mxGeometry>
        </mxCell>
        <mxCell id="ZXcEOGlHOmT0OJzu-Zjj-116" value="&lt;br style=&quot;text-align: left;&quot;&gt;&lt;span style=&quot;text-align: left;&quot; id=&quot;docs-internal-guid-509f3213-7fff-9143-d2de-ec3ef32e1bee&quot;&gt;&lt;span style=&quot;font-family: Calibri, sans-serif; color: rgb(0, 0, 0); background-color: transparent; font-variant-numeric: normal; font-variant-east-asian: normal; font-variant-alternates: normal; font-variant-position: normal; font-variant-emoji: normal; vertical-align: baseline; white-space-collapse: preserve;&quot;&gt;city &lt;/span&gt;&lt;/span&gt;" style="ellipse;whiteSpace=wrap;html=1;fontSize=10;" vertex="1" parent="1">
          <mxGeometry y="5" width="60" height="30" as="geometry" />
        </mxCell>
        <mxCell id="ZXcEOGlHOmT0OJzu-Zjj-124" style="edgeStyle=orthogonalEdgeStyle;rounded=0;orthogonalLoop=1;jettySize=auto;html=1;exitX=1;exitY=0.5;exitDx=0;exitDy=0;fontSize=10;" edge="1" parent="1" source="ZXcEOGlHOmT0OJzu-Zjj-117" target="ZXcEOGlHOmT0OJzu-Zjj-112">
          <mxGeometry relative="1" as="geometry">
            <mxPoint x="111" y="98" as="targetPoint" />
            <Array as="points">
              <mxPoint x="60" y="100" />
            </Array>
          </mxGeometry>
        </mxCell>
        <mxCell id="ZXcEOGlHOmT0OJzu-Zjj-117" value="&lt;span style=&quot;font-family: Calibri, sans-serif; text-align: left; white-space-collapse: preserve;&quot;&gt;gender &lt;/span&gt;" style="ellipse;whiteSpace=wrap;html=1;fontSize=10;" vertex="1" parent="1">
          <mxGeometry y="80" width="60" height="30" as="geometry" />
        </mxCell>
        <mxCell id="ZXcEOGlHOmT0OJzu-Zjj-123" style="edgeStyle=orthogonalEdgeStyle;rounded=0;orthogonalLoop=1;jettySize=auto;html=1;exitX=1;exitY=0.5;exitDx=0;exitDy=0;entryX=0;entryY=0.75;entryDx=0;entryDy=0;fontSize=10;" edge="1" parent="1" source="ZXcEOGlHOmT0OJzu-Zjj-118" target="ZXcEOGlHOmT0OJzu-Zjj-112">
          <mxGeometry relative="1" as="geometry" />
        </mxCell>
        <mxCell id="ZXcEOGlHOmT0OJzu-Zjj-118" value="&lt;span style=&quot;font-family: Calibri, sans-serif; text-align: left; white-space-collapse: preserve;&quot;&gt;email &lt;/span&gt;" style="ellipse;whiteSpace=wrap;html=1;fontSize=10;" vertex="1" parent="1">
          <mxGeometry y="40" width="60" height="30" as="geometry" />
        </mxCell>
        <mxCell id="ZXcEOGlHOmT0OJzu-Zjj-171" style="edgeStyle=orthogonalEdgeStyle;rounded=0;orthogonalLoop=1;jettySize=auto;html=1;exitX=1;exitY=0;exitDx=0;exitDy=0;fontSize=10;entryX=0.077;entryY=1.043;entryDx=0;entryDy=0;entryPerimeter=0;" edge="1" parent="1" source="ZXcEOGlHOmT0OJzu-Zjj-119" target="ZXcEOGlHOmT0OJzu-Zjj-112">
          <mxGeometry relative="1" as="geometry">
            <mxPoint x="110" y="200" as="targetPoint" />
          </mxGeometry>
        </mxCell>
        <mxCell id="ZXcEOGlHOmT0OJzu-Zjj-119" value="&lt;span style=&quot;text-align: left;&quot; id=&quot;docs-internal-guid-3b79e924-7fff-ffab-ddd3-2cf3c6f7b7b8&quot;&gt;&lt;span style=&quot;font-family: Calibri, sans-serif; color: rgb(0, 0, 0); background-color: transparent; font-variant-numeric: normal; font-variant-east-asian: normal; font-variant-alternates: normal; font-variant-position: normal; font-variant-emoji: normal; vertical-align: baseline; white-space-collapse: preserve;&quot;&gt;registration_date&lt;/span&gt;&lt;/span&gt;" style="ellipse;whiteSpace=wrap;html=1;fontSize=10;" vertex="1" parent="1">
          <mxGeometry y="165" width="80" height="40" as="geometry" />
        </mxCell>
        <mxCell id="ZXcEOGlHOmT0OJzu-Zjj-126" value="lives" style="rhombus;whiteSpace=wrap;html=1;fontSize=10;fontStyle=1" vertex="1" parent="1">
          <mxGeometry x="215" y="55" width="50" height="50" as="geometry" />
        </mxCell>
        <mxCell id="ZXcEOGlHOmT0OJzu-Zjj-129" value="Taking pleace&amp;nbsp;" style="rhombus;whiteSpace=wrap;html=1;fontSize=10;" vertex="1" parent="1">
          <mxGeometry x="510" y="55" width="50" height="50" as="geometry" />
        </mxCell>
        <mxCell id="ZXcEOGlHOmT0OJzu-Zjj-130" value="&lt;span style=&quot;font-family: Calibri, sans-serif; white-space-collapse: preserve;&quot;&gt;yeshuvim&lt;/span&gt;" style="rounded=0;whiteSpace=wrap;html=1;fontSize=10;fontStyle=1" vertex="1" parent="1">
          <mxGeometry x="362.5" y="60" width="60" height="40" as="geometry" />
        </mxCell>
        <mxCell id="ZXcEOGlHOmT0OJzu-Zjj-134" style="edgeStyle=orthogonalEdgeStyle;rounded=0;orthogonalLoop=1;jettySize=auto;html=1;exitX=0.5;exitY=1;exitDx=0;exitDy=0;fontSize=10;" edge="1" parent="1" source="ZXcEOGlHOmT0OJzu-Zjj-131" target="ZXcEOGlHOmT0OJzu-Zjj-130">
          <mxGeometry relative="1" as="geometry">
            <Array as="points">
              <mxPoint x="270" y="55" />
              <mxPoint x="319" y="55" />
              <mxPoint x="319" y="60" />
            </Array>
          </mxGeometry>
        </mxCell>
        <mxCell id="ZXcEOGlHOmT0OJzu-Zjj-131" value="&lt;span style=&quot;font-family: Calibri, sans-serif; text-align: left; white-space-collapse: preserve;&quot;&gt;name_heb&lt;/span&gt;" style="ellipse;whiteSpace=wrap;html=1;fontSize=10;" vertex="1" parent="1">
          <mxGeometry x="240" y="10" width="60" height="30" as="geometry" />
        </mxCell>
        <mxCell id="ZXcEOGlHOmT0OJzu-Zjj-135" style="edgeStyle=orthogonalEdgeStyle;rounded=0;orthogonalLoop=1;jettySize=auto;html=1;exitX=0.5;exitY=1;exitDx=0;exitDy=0;entryX=0.5;entryY=0;entryDx=0;entryDy=0;fontSize=10;" edge="1" parent="1" source="ZXcEOGlHOmT0OJzu-Zjj-132" target="ZXcEOGlHOmT0OJzu-Zjj-130">
          <mxGeometry relative="1" as="geometry">
            <Array as="points">
              <mxPoint x="350" y="40" />
              <mxPoint x="393" y="40" />
            </Array>
          </mxGeometry>
        </mxCell>
        <mxCell id="ZXcEOGlHOmT0OJzu-Zjj-132" value="&lt;span style=&quot;font-family: Calibri, sans-serif; text-align: left; white-space-collapse: preserve;&quot;&gt;name_eng&lt;/span&gt;" style="ellipse;whiteSpace=wrap;html=1;fontSize=10;" vertex="1" parent="1">
          <mxGeometry x="320" y="5" width="60" height="30" as="geometry" />
        </mxCell>
        <mxCell id="ZXcEOGlHOmT0OJzu-Zjj-136" style="edgeStyle=orthogonalEdgeStyle;rounded=0;orthogonalLoop=1;jettySize=auto;html=1;exitX=0.5;exitY=1;exitDx=0;exitDy=0;fontSize=10;" edge="1" parent="1" source="ZXcEOGlHOmT0OJzu-Zjj-133">
          <mxGeometry relative="1" as="geometry">
            <mxPoint x="414" y="60" as="targetPoint" />
            <Array as="points">
              <mxPoint x="440" y="30" />
              <mxPoint x="440" y="60" />
            </Array>
          </mxGeometry>
        </mxCell>
        <mxCell id="ZXcEOGlHOmT0OJzu-Zjj-133" value="&#xa;&lt;span style=&quot;color: rgb(0, 0, 0); font-family: Calibri, sans-serif; font-style: normal; font-variant-ligatures: normal; font-variant-caps: normal; font-weight: 400; letter-spacing: normal; orphans: 2; text-align: left; text-indent: 0px; text-transform: none; widows: 2; word-spacing: 0px; -webkit-text-stroke-width: 0px; white-space: pre-wrap; background-color: rgb(236, 236, 236); text-decoration-thickness: initial; text-decoration-style: initial; text-decoration-color: initial; float: none; display: inline !important;&quot;&gt;id&lt;/span&gt;&#xa;&#xa;" style="ellipse;whiteSpace=wrap;html=1;fontSize=10;" vertex="1" parent="1">
          <mxGeometry x="384" y="5" width="60" height="30" as="geometry" />
        </mxCell>
        <mxCell id="ZXcEOGlHOmT0OJzu-Zjj-141" value="&lt;span style=&quot;text-wrap-mode: nowrap; color: rgba(0, 0, 0, 0); font-family: monospace; font-size: 0px; text-align: start;&quot;&gt;%3CmxGraphModel%3E%3Croot%3E%3CmxCell%20id%3D%220%22%2F%3E%3CmxCell%20id%3D%221%22%20parent%3D%220%22%2F%3E%3CmxCell%20id%3D%222%22%20value%3D%22%26lt%3Bspan%20style%3D%26quot%3Bfont-family%3A%20monospace%3B%20font-size%3A%2013.12px%3B%20text-align%3A%20left%3B%26quot%3B%26gt%3B%26lt%3Bfont%20style%3D%26quot%3Bcolor%3A%20rgb(0%2C%200%2C%200)%3B%26quot%3B%26gt%3Badmins%26lt%3B%2Ffont%26gt%3B%26lt%3B%2Fspan%26gt%3B%22%20style%3D%22swimlane%3BfontStyle%3D0%3BchildLayout%3DstackLayout%3Bhorizontal%3D1%3BstartSize%3D30%3BhorizontalStack%3D0%3BresizeParent%3D1%3BresizeParentMax%3D0%3BresizeLast%3D0%3Bcollapsible%3D1%3BmarginBottom%3D0%3BwhiteSpace%3Dwrap%3Bhtml%3D1%3B%22%20vertex%3D%221%22%20parent%3D%221%22%3E%3CmxGeometry%20x%3D%2210%22%20y%3D%2220%22%20width%3D%22140%22%20height%3D%22150%22%20as%3D%22geometry%22%2F%3E%3C%2FmxCell%3E%3CmxCell%20id%3D%223%22%20value%3D%22%26lt%3Bspan%20style%3D%26quot%3Bfont-family%3A%20sans-serif%3B%20font-size%3A%2013.12px%3B%20font-weight%3A%20700%3B%20text-align%3A%20right%3B%20background-color%3A%20rgb(255%2C%20255%2C%20255)%3B%26quot%3B%26gt%3Badmin_id%26lt%3B%2Fspan%26gt%3B%22%20style%3D%22text%3BstrokeColor%3Dnone%3BfillColor%3Dnone%3Balign%3Dleft%3BverticalAlign%3Dmiddle%3BspacingLeft%3D4%3BspacingRight%3D4%3Boverflow%3Dhidden%3Bpoints%3D%5B%5B0%2C0.5%5D%2C%5B1%2C0.5%5D%5D%3BportConstraint%3Deastwest%3Brotatable%3D0%3BwhiteSpace%3Dwrap%3Bhtml%3D1%3B%22%20vertex%3D%221%22%20parent%3D%222%22%3E%3CmxGeometry%20y%3D%2230%22%20width%3D%22140%22%20height%3D%2230%22%20as%3D%22geometry%22%2F%3E%3C%2FmxCell%3E%3CmxCell%20id%3D%224%22%20value%3D%22%26lt%3Bspan%20style%3D%26quot%3Bfont-family%3A%20sans-serif%3B%20font-size%3A%2013.12px%3B%20font-weight%3A%20700%3B%20background-color%3A%20rgb(255%2C%20255%2C%20255)%3B%26quot%3B%26gt%3Badmin_username%26lt%3B%2Fspan%26gt%3B%22%20style%3D%22text%3BstrokeColor%3Dnone%3BfillColor%3Dnone%3Balign%3Dleft%3BverticalAlign%3Dmiddle%3BspacingLeft%3D4%3BspacingRight%3D4%3Boverflow%3Dhidden%3Bpoints%3D%5B%5B0%2C0.5%5D%2C%5B1%2C0.5%5D%5D%3BportConstraint%3Deastwest%3Brotatable%3D0%3BwhiteSpace%3Dwrap%3Bhtml%3D1%3B%22%20vertex%3D%221%22%20parent%3D%222%22%3E%3CmxGeometry%20y%3D%2260%22%20width%3D%22140%22%20height%3D%2230%22%20as%3D%22geometry%22%2F%3E%3C%2FmxCell%3E%3CmxCell%20id%3D%225%22%20value%3D%22%26lt%3Bspan%20style%3D%26quot%3Bfont-family%3A%20sans-serif%3B%20font-size%3A%2013.12px%3B%20font-weight%3A%20700%3B%20background-color%3A%20rgb(255%2C%20255%2C%20255)%3B%26quot%3B%26gt%3Badmin_password%26lt%3B%2Fspan%26gt%3B%22%20style%3D%22text%3BstrokeColor%3Dnone%3BfillColor%3Dnone%3Balign%3Dleft%3BverticalAlign%3Dmiddle%3BspacingLeft%3D4%3BspacingRight%3D4%3Boverflow%3Dhidden%3Bpoints%3D%5B%5B0%2C0.5%5D%2C%5B1%2C0.5%5D%5D%3BportConstraint%3Deastwest%3Brotatable%3D0%3BwhiteSpace%3Dwrap%3Bhtml%3D1%3B%22%20vertex%3D%221%22%20parent%3D%222%22%3E%3CmxGeometry%20y%3D%2290%22%20width%3D%22140%22%20height%3D%2230%22%20as%3D%22geometry%22%2F%3E%3C%2FmxCell%3E%3CmxCell%20id%3D%226%22%20value%3D%22%26lt%3Bspan%20style%3D%26quot%3Bfont-family%3A%20sans-serif%3B%20font-size%3A%2013.12px%3B%20font-weight%3A%20700%3B%20background-color%3A%20rgb(255%2C%20255%2C%20255)%3B%26quot%3B%26gt%3Bemail%26lt%3B%2Fspan%26gt%3B%22%20style%3D%22text%3BstrokeColor%3Dnone%3BfillColor%3Dnone%3Balign%3Dleft%3BverticalAlign%3Dmiddle%3BspacingLeft%3D4%3BspacingRight%3D4%3Boverflow%3Dhidden%3Bpoints%3D%5B%5B0%2C0.5%5D%2C%5B1%2C0.5%5D%5D%3BportConstraint%3Deastwest%3Brotatable%3D0%3BwhiteSpace%3Dwrap%3Bhtml%3D1%3B%22%20vertex%3D%221%22%20parent%3D%222%22%3E%3CmxGeometry%20y%3D%22120%22%20width%3D%22140%22%20height%3D%2230%22%20as%3D%22geometry%22%2F%3E%3C%2FmxCell%3E%3C%2Froot%3E%3C%2FmxGraphModel%3E&lt;/span&gt;&lt;span style=&quot;text-wrap-mode: nowrap; color: rgba(0, 0, 0, 0); font-family: monospace; font-size: 0px; text-align: start;&quot;&gt;%3CmxGraphModel%3E%3Croot%3E%3CmxCell%20id%3D%220%22%2F%3E%3CmxCell%20id%3D%221%22%20parent%3D%220%22%2F%3E%3CmxCell%20id%3D%222%22%20value%3D%22%26lt%3Bspan%20style%3D%26quot%3Bfont-family%3A%20monospace%3B%20font-size%3A%2013.12px%3B%20text-align%3A%20left%3B%26quot%3B%26gt%3B%26lt%3Bfont%20style%3D%26quot%3Bcolor%3A%20rgb(0%2C%200%2C%200)%3B%26quot%3B%26gt%3Badmins%26lt%3B%2Ffont%26gt%3B%26lt%3B%2Fspan%26gt%3B%22%20style%3D%22swimlane%3BfontStyle%3D0%3BchildLayout%3DstackLayout%3Bhorizontal%3D1%3BstartSize%3D30%3BhorizontalStack%3D0%3BresizeParent%3D1%3BresizeParentMax%3D0%3BresizeLast%3D0%3Bcollapsible%3D1%3BmarginBottom%3D0%3BwhiteSpace%3Dwrap%3Bhtml%3D1%3B%22%20vertex%3D%221%22%20parent%3D%221%22%3E%3CmxGeometry%20x%3D%2210%22%20y%3D%2220%22%20width%3D%22140%22%20height%3D%22150%22%20as%3D%22geometry%22%2F%3E%3C%2FmxCell%3E%3CmxCell%20id%3D%223%22%20value%3D%22%26lt%3Bspan%20style%3D%26quot%3Bfont-family%3A%20sans-serif%3B%20font-size%3A%2013.12px%3B%20font-weight%3A%20700%3B%20text-align%3A%20right%3B%20background-color%3A%20rgb(255%2C%20255%2C%20255)%3B%26quot%3B%26gt%3Badmin_id%26lt%3B%2Fspan%26gt%3B%22%20style%3D%22text%3BstrokeColor%3Dnone%3BfillColor%3Dnone%3Balign%3Dleft%3BverticalAlign%3Dmiddle%3BspacingLeft%3D4%3BspacingRight%3D4%3Boverflow%3Dhidden%3Bpoints%3D%5B%5B0%2C0.5%5D%2C%5B1%2C0.5%5D%5D%3BportConstraint%3Deastwest%3Brotatable%3D0%3BwhiteSpace%3Dwrap%3Bhtml%3D1%3B%22%20vertex%3D%221%22%20parent%3D%222%22%3E%3CmxGeometry%20y%3D%2230%22%20width%3D%22140%22%20height%3D%2230%22%20as%3D%22geometry%22%2F%3E%3C%2FmxCell%3E%3CmxCell%20id%3D%224%22%20value%3D%22%26lt%3Bspan%20style%3D%26quot%3Bfont-family%3A%20sans-serif%3B%20font-size%3A%2013.12px%3B%20font-weight%3A%20700%3B%20background-color%3A%20rgb(255%2C%20255%2C%20255)%3B%26quot%3B%26gt%3Badmin_username%26lt%3B%2Fspan%26gt%3B%22%20style%3D%22text%3BstrokeColor%3Dnone%3BfillColor%3Dnone%3Balign%3Dleft%3BverticalAlign%3Dmiddle%3BspacingLeft%3D4%3BspacingRight%3D4%3Boverflow%3Dhidden%3Bpoints%3D%5B%5B0%2C0.5%5D%2C%5B1%2C0.5%5D%5D%3BportConstraint%3Deastwest%3Brotatable%3D0%3BwhiteSpace%3Dwrap%3Bhtml%3D1%3B%22%20vertex%3D%221%22%20parent%3D%222%22%3E%3CmxGeometry%20y%3D%2260%22%20width%3D%22140%22%20height%3D%2230%22%20as%3D%22geometry%22%2F%3E%3C%2FmxCell%3E%3CmxCell%20id%3D%225%22%20value%3D%22%26lt%3Bspan%20style%3D%26quot%3Bfont-family%3A%20sans-serif%3B%20font-size%3A%2013.12px%3B%20font-weight%3A%20700%3B%20background-color%3A%20rgb(255%2C%20255%2C%20255)%3B%26quot%3B%26gt%3Badmin_password%26lt%3B%2Fspan%26gt%3B%22%20style%3D%22text%3BstrokeColor%3Dnone%3BfillColor%3Dnone%3Balign%3Dleft%3BverticalAlign%3Dmiddle%3BspacingLeft%3D4%3BspacingRight%3D4%3Boverflow%3Dhidden%3Bpoints%3D%5B%5B0%2C0.5%5D%2C%5B1%2C0.5%5D%5D%3BportConstraint%3Deastwest%3Brotatable%3D0%3BwhiteSpace%3Dwrap%3Bhtml%3D1%3B%22%20vertex%3D%221%22%20parent%3D%222%22%3E%3CmxGeometry%20y%3D%2290%22%20width%3D%22140%22%20height%3D%2230%22%20as%3D%22geometry%22%2F%3E%3C%2FmxCell%3E%3CmxCell%20id%3D%226%22%20value%3D%22%26lt%3Bspan%20style%3D%26quot%3Bfont-family%3A%20sans-serif%3B%20font-size%3A%2013.12px%3B%20font-weight%3A%20700%3B%20background-color%3A%20rgb(255%2C%20255%2C%20255)%3B%26quot%3B%26gt%3Bemail%26lt%3B%2Fspan%26gt%3B%22%20style%3D%22text%3BstrokeColor%3Dnone%3BfillColor%3Dnone%3Balign%3Dleft%3BverticalAlign%3Dmiddle%3BspacingLeft%3D4%3BspacingRight%3D4%3Boverflow%3Dhidden%3Bpoints%3D%5B%5B0%2C0.5%5D%2C%5B1%2C0.5%5D%5D%3BportConstraint%3Deastwest%3Brotatable%3D0%3BwhiteSpace%3Dwrap%3Bhtml%3D1%3B%22%20vertex%3D%221%22%20parent%3D%222%22%3E%3CmxGeometry%20y%3D%22120%22%20width%3D%22140%22%20height%3D%2230%22%20as%3D%22geometry%22%2F%3E%3C%2FmxCell%3E%3C%2Froot%3E%3C%2FmxGraphModel%3E&lt;/span&gt;&lt;span id=&quot;docs-internal-guid-405acd79-7fff-7979-b0f7-65ad9f35f488&quot;&gt;&lt;span style=&quot;font-size: 12pt; font-family: Calibri, sans-serif; background-color: transparent; font-variant-numeric: normal; font-variant-east-asian: normal; font-variant-alternates: normal; font-variant-position: normal; font-variant-emoji: normal; vertical-align: baseline; white-space-collapse: preserve;&quot;&gt;events&lt;/span&gt;&lt;/span&gt;" style="rounded=0;whiteSpace=wrap;html=1;fontStyle=1" vertex="1" parent="1">
          <mxGeometry x="610" y="50" width="60" height="40" as="geometry" />
        </mxCell>
        <mxCell id="ZXcEOGlHOmT0OJzu-Zjj-142" value="&lt;span style=&quot;font-family: Calibri, sans-serif; text-align: left; white-space-collapse: preserve;&quot;&gt;event_id &lt;/span&gt;" style="ellipse;whiteSpace=wrap;html=1;fontSize=11;" vertex="1" parent="1">
          <mxGeometry x="612.5" y="5" width="60" height="30" as="geometry" />
        </mxCell>
        <mxCell id="ZXcEOGlHOmT0OJzu-Zjj-154" style="edgeStyle=orthogonalEdgeStyle;rounded=0;orthogonalLoop=1;jettySize=auto;html=1;" edge="1" parent="1" source="ZXcEOGlHOmT0OJzu-Zjj-143" target="ZXcEOGlHOmT0OJzu-Zjj-141">
          <mxGeometry relative="1" as="geometry">
            <Array as="points">
              <mxPoint x="740" y="65" />
              <mxPoint x="740" y="80" />
            </Array>
          </mxGeometry>
        </mxCell>
        <mxCell id="ZXcEOGlHOmT0OJzu-Zjj-143" value="&lt;span style=&quot;font-family: Calibri, sans-serif; text-align: left; white-space-collapse: preserve;&quot;&gt;event_name&lt;/span&gt;" style="ellipse;whiteSpace=wrap;html=1;fontSize=11;" vertex="1" parent="1">
          <mxGeometry x="750" y="50" width="60" height="30" as="geometry" />
        </mxCell>
        <mxCell id="ZXcEOGlHOmT0OJzu-Zjj-153" style="edgeStyle=orthogonalEdgeStyle;rounded=0;orthogonalLoop=1;jettySize=auto;html=1;entryX=1;entryY=0.5;entryDx=0;entryDy=0;" edge="1" parent="1" source="ZXcEOGlHOmT0OJzu-Zjj-144" target="ZXcEOGlHOmT0OJzu-Zjj-141">
          <mxGeometry relative="1" as="geometry">
            <Array as="points">
              <mxPoint x="790" y="40" />
              <mxPoint x="715" y="40" />
              <mxPoint x="715" y="70" />
            </Array>
          </mxGeometry>
        </mxCell>
        <mxCell id="ZXcEOGlHOmT0OJzu-Zjj-144" value="&lt;span style=&quot;font-family: Calibri, sans-serif; text-align: left; white-space-collapse: preserve;&quot;&gt;category &lt;/span&gt;" style="ellipse;whiteSpace=wrap;html=1;fontSize=11;" vertex="1" parent="1">
          <mxGeometry x="760" y="5" width="60" height="30" as="geometry" />
        </mxCell>
        <mxCell id="ZXcEOGlHOmT0OJzu-Zjj-152" style="edgeStyle=orthogonalEdgeStyle;rounded=0;orthogonalLoop=1;jettySize=auto;html=1;entryX=1;entryY=0;entryDx=0;entryDy=0;" edge="1" parent="1" source="ZXcEOGlHOmT0OJzu-Zjj-146" target="ZXcEOGlHOmT0OJzu-Zjj-141">
          <mxGeometry relative="1" as="geometry">
            <Array as="points">
              <mxPoint x="680" y="15" />
              <mxPoint x="680" y="50" />
            </Array>
          </mxGeometry>
        </mxCell>
        <mxCell id="ZXcEOGlHOmT0OJzu-Zjj-146" value="&lt;span style=&quot;font-family: Calibri, sans-serif; text-align: left; white-space-collapse: preserve;&quot;&gt;start_date &lt;/span&gt;" style="ellipse;whiteSpace=wrap;html=1;fontSize=11;" vertex="1" parent="1">
          <mxGeometry x="690" y="5" width="60" height="30" as="geometry" />
        </mxCell>
        <mxCell id="ZXcEOGlHOmT0OJzu-Zjj-156" style="edgeStyle=orthogonalEdgeStyle;rounded=0;orthogonalLoop=1;jettySize=auto;html=1;exitX=0;exitY=0.5;exitDx=0;exitDy=0;entryX=0.5;entryY=1;entryDx=0;entryDy=0;" edge="1" parent="1" source="ZXcEOGlHOmT0OJzu-Zjj-147" target="ZXcEOGlHOmT0OJzu-Zjj-141">
          <mxGeometry relative="1" as="geometry" />
        </mxCell>
        <mxCell id="ZXcEOGlHOmT0OJzu-Zjj-147" value="&lt;span style=&quot;font-family: Calibri, sans-serif; text-align: left; white-space-collapse: preserve;&quot;&gt;end_date &lt;/span&gt;" style="ellipse;whiteSpace=wrap;html=1;fontSize=11;" vertex="1" parent="1">
          <mxGeometry x="760" y="130" width="60" height="30" as="geometry" />
        </mxCell>
        <mxCell id="ZXcEOGlHOmT0OJzu-Zjj-155" style="edgeStyle=orthogonalEdgeStyle;rounded=0;orthogonalLoop=1;jettySize=auto;html=1;entryX=0.75;entryY=1;entryDx=0;entryDy=0;" edge="1" parent="1" source="ZXcEOGlHOmT0OJzu-Zjj-148" target="ZXcEOGlHOmT0OJzu-Zjj-141">
          <mxGeometry relative="1" as="geometry">
            <Array as="points">
              <mxPoint x="740" y="90" />
              <mxPoint x="740" y="130" />
              <mxPoint x="670" y="130" />
              <mxPoint x="670" y="90" />
            </Array>
          </mxGeometry>
        </mxCell>
        <mxCell id="ZXcEOGlHOmT0OJzu-Zjj-148" value="&lt;span style=&quot;font-family: Calibri, sans-serif; text-align: left; white-space-collapse: preserve;&quot;&gt;start_time&lt;/span&gt;" style="ellipse;whiteSpace=wrap;html=1;fontSize=11;" vertex="1" parent="1">
          <mxGeometry x="760" y="90" width="60" height="30" as="geometry" />
        </mxCell>
        <mxCell id="ZXcEOGlHOmT0OJzu-Zjj-157" style="edgeStyle=orthogonalEdgeStyle;rounded=0;orthogonalLoop=1;jettySize=auto;html=1;entryX=0.25;entryY=1;entryDx=0;entryDy=0;" edge="1" parent="1" source="ZXcEOGlHOmT0OJzu-Zjj-149" target="ZXcEOGlHOmT0OJzu-Zjj-141">
          <mxGeometry relative="1" as="geometry">
            <Array as="points">
              <mxPoint x="740" y="185" />
              <mxPoint x="740" y="160" />
              <mxPoint x="625" y="160" />
            </Array>
          </mxGeometry>
        </mxCell>
        <mxCell id="ZXcEOGlHOmT0OJzu-Zjj-149" value="&lt;span style=&quot;font-family: Calibri, sans-serif; text-align: left; white-space-collapse: preserve;&quot;&gt;is_private &lt;/span&gt;" style="ellipse;whiteSpace=wrap;html=1;fontSize=11;" vertex="1" parent="1">
          <mxGeometry x="760" y="170" width="60" height="30" as="geometry" />
        </mxCell>
        <mxCell id="ZXcEOGlHOmT0OJzu-Zjj-151" style="edgeStyle=orthogonalEdgeStyle;rounded=0;orthogonalLoop=1;jettySize=auto;html=1;exitX=0.5;exitY=1;exitDx=0;exitDy=0;entryX=0.664;entryY=0.04;entryDx=0;entryDy=0;entryPerimeter=0;" edge="1" parent="1" source="ZXcEOGlHOmT0OJzu-Zjj-142" target="ZXcEOGlHOmT0OJzu-Zjj-141">
          <mxGeometry relative="1" as="geometry" />
        </mxCell>
        <mxCell id="ZXcEOGlHOmT0OJzu-Zjj-158" value="join" style="rhombus;whiteSpace=wrap;html=1;fontSize=10;fontStyle=1" vertex="1" parent="1">
          <mxGeometry x="280" y="170" width="50" height="50" as="geometry" />
        </mxCell>
        <mxCell id="ZXcEOGlHOmT0OJzu-Zjj-159" value="&lt;span style=&quot;text-wrap-mode: nowrap;&quot; id=&quot;docs-internal-guid-f944a242-7fff-367e-e64a-8cac75218edf&quot;&gt;&lt;span id=&quot;docs-internal-guid-e3fb7752-7fff-ba73-56fa-b38842172bc0&quot;&gt;&lt;span style=&quot;font-family: Calibri, sans-serif; background-color: transparent; font-variant-numeric: normal; font-variant-east-asian: normal; font-variant-alternates: normal; font-variant-position: normal; font-variant-emoji: normal; vertical-align: baseline; white-space: pre-wrap;&quot;&gt;join_date &lt;/span&gt;&lt;/span&gt;&lt;/span&gt;&lt;div&gt;&lt;span style=&quot;text-wrap-mode: nowrap;&quot;&gt;&lt;span&gt;&lt;span style=&quot;font-family: Calibri, sans-serif; background-color: transparent; font-variant-numeric: normal; font-variant-east-asian: normal; font-variant-alternates: normal; font-variant-position: normal; font-variant-emoji: normal; vertical-align: baseline; white-space: pre-wrap;&quot;&gt;&lt;br&gt;&lt;/span&gt;&lt;/span&gt;&lt;/span&gt;&lt;/div&gt;" style="ellipse;whiteSpace=wrap;html=1;fontSize=10;" vertex="1" parent="1">
          <mxGeometry x="500" y="150" width="60" height="30" as="geometry" />
        </mxCell>
        <mxCell id="ZXcEOGlHOmT0OJzu-Zjj-184" style="edgeStyle=orthogonalEdgeStyle;rounded=0;orthogonalLoop=1;jettySize=auto;html=1;exitX=0;exitY=0.5;exitDx=0;exitDy=0;entryX=1;entryY=0;entryDx=0;entryDy=0;fontSize=10;" edge="1" parent="1" source="ZXcEOGlHOmT0OJzu-Zjj-160" target="ZXcEOGlHOmT0OJzu-Zjj-158">
          <mxGeometry relative="1" as="geometry" />
        </mxCell>
        <mxCell id="ZXcEOGlHOmT0OJzu-Zjj-160" value="&lt;div&gt;&lt;div style=&quot;text-wrap-mode: nowrap;&quot;&gt;&lt;span style=&quot;font-family: Calibri, sans-serif; background-color: transparent; font-variant-numeric: normal; font-variant-east-asian: normal; font-variant-alternates: normal; font-variant-position: normal; font-variant-emoji: normal; vertical-align: baseline; white-space: pre-wrap;&quot;&gt;user_id &lt;/span&gt;&lt;/div&gt;&lt;/div&gt;&lt;div&gt;&lt;span style=&quot;font-family: Calibri, sans-serif; background-color: transparent; font-variant-numeric: normal; font-variant-east-asian: normal; font-variant-alternates: normal; font-variant-position: normal; font-variant-emoji: normal; vertical-align: baseline; white-space: pre-wrap;&quot;&gt;&lt;br&gt;&lt;/span&gt;&lt;/div&gt;" style="ellipse;whiteSpace=wrap;html=1;fontSize=10;" vertex="1" parent="1">
          <mxGeometry x="354" y="150" width="60" height="30" as="geometry" />
        </mxCell>
        <mxCell id="ZXcEOGlHOmT0OJzu-Zjj-161" value="&lt;div&gt;&lt;div style=&quot;text-wrap-mode: nowrap;&quot;&gt;&lt;span style=&quot;font-family: Calibri, sans-serif; white-space: pre-wrap;&quot;&gt;event_id&lt;/span&gt;&lt;/div&gt;&lt;/div&gt;" style="ellipse;whiteSpace=wrap;html=1;fontSize=10;" vertex="1" parent="1">
          <mxGeometry x="430" y="150" width="60" height="30" as="geometry" />
        </mxCell>
        <mxCell id="ZXcEOGlHOmT0OJzu-Zjj-167" value="create" style="rhombus;whiteSpace=wrap;html=1;fontSize=10;fontStyle=1" vertex="1" parent="1">
          <mxGeometry x="270" y="120" width="50" height="50" as="geometry" />
        </mxCell>
        <mxCell id="ZXcEOGlHOmT0OJzu-Zjj-172" value="" style="endArrow=none;html=1;rounded=0;entryX=1;entryY=0.5;entryDx=0;entryDy=0;exitX=0;exitY=0.5;exitDx=0;exitDy=0;fontSize=10;" edge="1" parent="1" source="ZXcEOGlHOmT0OJzu-Zjj-126" target="ZXcEOGlHOmT0OJzu-Zjj-112">
          <mxGeometry width="50" height="50" relative="1" as="geometry">
            <mxPoint x="410" y="190" as="sourcePoint" />
            <mxPoint x="460" y="140" as="targetPoint" />
          </mxGeometry>
        </mxCell>
        <mxCell id="ZXcEOGlHOmT0OJzu-Zjj-173" value="" style="endArrow=none;html=1;rounded=0;entryX=1;entryY=0.5;entryDx=0;entryDy=0;exitX=0;exitY=0.5;exitDx=0;exitDy=0;fontSize=10;" edge="1" parent="1" source="ZXcEOGlHOmT0OJzu-Zjj-130" target="ZXcEOGlHOmT0OJzu-Zjj-126">
          <mxGeometry width="50" height="50" relative="1" as="geometry">
            <mxPoint x="355" y="105" as="sourcePoint" />
            <mxPoint x="310" y="100" as="targetPoint" />
          </mxGeometry>
        </mxCell>
        <mxCell id="ZXcEOGlHOmT0OJzu-Zjj-174" value="" style="endArrow=none;html=1;rounded=0;entryX=1;entryY=0.5;entryDx=0;entryDy=0;exitX=0;exitY=0.5;exitDx=0;exitDy=0;fontSize=10;" edge="1" parent="1" source="ZXcEOGlHOmT0OJzu-Zjj-129" target="ZXcEOGlHOmT0OJzu-Zjj-130">
          <mxGeometry width="50" height="50" relative="1" as="geometry">
            <mxPoint x="375" y="105" as="sourcePoint" />
            <mxPoint x="330" y="100" as="targetPoint" />
          </mxGeometry>
        </mxCell>
        <mxCell id="ZXcEOGlHOmT0OJzu-Zjj-175" value="" style="endArrow=none;html=1;rounded=0;entryX=1;entryY=0.5;entryDx=0;entryDy=0;exitX=0;exitY=0.5;exitDx=0;exitDy=0;" edge="1" parent="1" source="ZXcEOGlHOmT0OJzu-Zjj-141" target="ZXcEOGlHOmT0OJzu-Zjj-129">
          <mxGeometry width="50" height="50" relative="1" as="geometry">
            <mxPoint x="515" y="135" as="sourcePoint" />
            <mxPoint x="470" y="130" as="targetPoint" />
          </mxGeometry>
        </mxCell>
        <mxCell id="ZXcEOGlHOmT0OJzu-Zjj-176" value="" style="endArrow=none;html=1;rounded=0;exitX=0;exitY=0.5;exitDx=0;exitDy=0;entryX=1;entryY=0.75;entryDx=0;entryDy=0;fontSize=10;" edge="1" parent="1" source="ZXcEOGlHOmT0OJzu-Zjj-167" target="ZXcEOGlHOmT0OJzu-Zjj-112">
          <mxGeometry width="50" height="50" relative="1" as="geometry">
            <mxPoint x="285" y="215" as="sourcePoint" />
            <mxPoint x="180" y="215" as="targetPoint" />
            <Array as="points">
              <mxPoint x="170" y="145" />
            </Array>
          </mxGeometry>
        </mxCell>
        <mxCell id="ZXcEOGlHOmT0OJzu-Zjj-178" value="" style="endArrow=none;html=1;rounded=0;entryX=1;entryY=0.5;entryDx=0;entryDy=0;exitX=0;exitY=1;exitDx=0;exitDy=0;" edge="1" parent="1" source="ZXcEOGlHOmT0OJzu-Zjj-141" target="ZXcEOGlHOmT0OJzu-Zjj-167">
          <mxGeometry width="50" height="50" relative="1" as="geometry">
            <mxPoint x="610" y="90" as="sourcePoint" />
            <mxPoint x="315" y="145" as="targetPoint" />
            <Array as="points">
              <mxPoint x="610" y="140" />
            </Array>
          </mxGeometry>
        </mxCell>
        <mxCell id="ZXcEOGlHOmT0OJzu-Zjj-183" value="" style="endArrow=none;html=1;rounded=0;entryX=0.75;entryY=1;entryDx=0;entryDy=0;exitX=0;exitY=0.5;exitDx=0;exitDy=0;fontSize=10;" edge="1" parent="1" source="ZXcEOGlHOmT0OJzu-Zjj-158" target="ZXcEOGlHOmT0OJzu-Zjj-112">
          <mxGeometry width="50" height="50" relative="1" as="geometry">
            <mxPoint x="180" y="210" as="sourcePoint" />
            <mxPoint x="200" y="210" as="targetPoint" />
            <Array as="points">
              <mxPoint x="155" y="195" />
            </Array>
          </mxGeometry>
        </mxCell>
        <mxCell id="ZXcEOGlHOmT0OJzu-Zjj-185" style="edgeStyle=orthogonalEdgeStyle;rounded=0;orthogonalLoop=1;jettySize=auto;html=1;exitX=0.5;exitY=1;exitDx=0;exitDy=0;entryX=0.88;entryY=0.577;entryDx=0;entryDy=0;entryPerimeter=0;fontSize=10;" edge="1" parent="1" source="ZXcEOGlHOmT0OJzu-Zjj-161" target="ZXcEOGlHOmT0OJzu-Zjj-158">
          <mxGeometry relative="1" as="geometry" />
        </mxCell>
        <mxCell id="ZXcEOGlHOmT0OJzu-Zjj-186" style="edgeStyle=orthogonalEdgeStyle;rounded=0;orthogonalLoop=1;jettySize=auto;html=1;exitX=0.5;exitY=1;exitDx=0;exitDy=0;entryX=0.347;entryY=0.963;entryDx=0;entryDy=0;entryPerimeter=0;fontSize=10;" edge="1" parent="1" source="ZXcEOGlHOmT0OJzu-Zjj-159" target="ZXcEOGlHOmT0OJzu-Zjj-158">
          <mxGeometry relative="1" as="geometry" />
        </mxCell>
        <mxCell id="ZXcEOGlHOmT0OJzu-Zjj-187" value="write comment" style="rhombus;whiteSpace=wrap;html=1;fontSize=10;fontStyle=1" vertex="1" parent="1">
          <mxGeometry x="180" y="290" width="65" height="60" as="geometry" />
        </mxCell>
        <mxCell id="ZXcEOGlHOmT0OJzu-Zjj-188" value="" style="endArrow=none;html=1;rounded=0;exitX=0;exitY=0.5;exitDx=0;exitDy=0;" edge="1" parent="1" source="ZXcEOGlHOmT0OJzu-Zjj-187">
          <mxGeometry width="50" height="50" relative="1" as="geometry">
            <mxPoint x="200" y="270" as="sourcePoint" />
            <mxPoint x="150" y="100" as="targetPoint" />
            <Array as="points">
              <mxPoint x="149" y="320" />
            </Array>
          </mxGeometry>
        </mxCell>
        <mxCell id="ZXcEOGlHOmT0OJzu-Zjj-194" style="edgeStyle=orthogonalEdgeStyle;rounded=0;orthogonalLoop=1;jettySize=auto;html=1;entryX=1;entryY=0;entryDx=0;entryDy=0;" edge="1" parent="1" source="ZXcEOGlHOmT0OJzu-Zjj-189" target="ZXcEOGlHOmT0OJzu-Zjj-187">
          <mxGeometry relative="1" as="geometry" />
        </mxCell>
        <mxCell id="ZXcEOGlHOmT0OJzu-Zjj-189" value="&lt;div&gt;&lt;span style=&quot;font-family: Calibri, sans-serif; white-space-collapse: preserve;&quot;&gt;event_id &lt;/span&gt;&lt;span style=&quot;text-wrap-mode: nowrap;&quot;&gt;&lt;span&gt;&lt;span style=&quot;font-family: Calibri, sans-serif; background-color: transparent; font-variant-numeric: normal; font-variant-east-asian: normal; font-variant-alternates: normal; font-variant-position: normal; font-variant-emoji: normal; vertical-align: baseline; white-space: pre-wrap;&quot;&gt;&lt;/span&gt;&lt;/span&gt;&lt;/span&gt;&lt;/div&gt;" style="ellipse;whiteSpace=wrap;html=1;fontSize=10;" vertex="1" parent="1">
          <mxGeometry x="230" y="210" width="60" height="30" as="geometry" />
        </mxCell>
        <mxCell id="ZXcEOGlHOmT0OJzu-Zjj-193" style="edgeStyle=orthogonalEdgeStyle;rounded=0;orthogonalLoop=1;jettySize=auto;html=1;" edge="1" parent="1" source="ZXcEOGlHOmT0OJzu-Zjj-190" target="ZXcEOGlHOmT0OJzu-Zjj-187">
          <mxGeometry relative="1" as="geometry">
            <Array as="points" />
          </mxGeometry>
        </mxCell>
        <mxCell id="ZXcEOGlHOmT0OJzu-Zjj-190" value="&lt;div style=&quot;text-wrap-mode: nowrap;&quot;&gt;&lt;span style=&quot;font-family: Calibri, sans-serif; background-color: transparent; font-variant-numeric: normal; font-variant-east-asian: normal; font-variant-alternates: normal; font-variant-position: normal; font-variant-emoji: normal; vertical-align: baseline; white-space: pre-wrap;&quot;&gt;comment_content &lt;/span&gt;&lt;/div&gt;&lt;div&gt;&lt;span style=&quot;font-family: Calibri, sans-serif; background-color: transparent; font-variant-numeric: normal; font-variant-east-asian: normal; font-variant-alternates: normal; font-variant-position: normal; font-variant-emoji: normal; vertical-align: baseline; white-space: pre-wrap;&quot;&gt;&lt;br&gt;&lt;/span&gt;&lt;/div&gt;" style="ellipse;whiteSpace=wrap;html=1;fontSize=10;" vertex="1" parent="1">
          <mxGeometry x="170" y="200" width="60" height="30" as="geometry" />
        </mxCell>
        <mxCell id="ZXcEOGlHOmT0OJzu-Zjj-197" style="edgeStyle=orthogonalEdgeStyle;rounded=0;orthogonalLoop=1;jettySize=auto;html=1;" edge="1" parent="1" source="ZXcEOGlHOmT0OJzu-Zjj-191" target="ZXcEOGlHOmT0OJzu-Zjj-187">
          <mxGeometry relative="1" as="geometry">
            <Array as="points">
              <mxPoint x="393" y="330" />
            </Array>
          </mxGeometry>
        </mxCell>
        <mxCell id="ZXcEOGlHOmT0OJzu-Zjj-191" value="&lt;div style=&quot;text-wrap-mode: nowrap;&quot;&gt;&lt;span style=&quot;font-family: Calibri, sans-serif; background-color: transparent; font-variant-numeric: normal; font-variant-east-asian: normal; font-variant-alternates: normal; font-variant-position: normal; font-variant-emoji: normal; vertical-align: baseline; white-space: pre-wrap;&quot;&gt; comment_id &lt;/span&gt;&lt;/div&gt;&lt;div&gt;&lt;span style=&quot;font-family: Calibri, sans-serif; background-color: transparent; font-variant-numeric: normal; font-variant-east-asian: normal; font-variant-alternates: normal; font-variant-position: normal; font-variant-emoji: normal; vertical-align: baseline; white-space: pre-wrap;&quot;&gt;&lt;br&gt;&lt;/span&gt;&lt;/div&gt;" style="ellipse;whiteSpace=wrap;html=1;fontSize=10;" vertex="1" parent="1">
          <mxGeometry x="362.5" y="240" width="60" height="30" as="geometry" />
        </mxCell>
        <mxCell id="ZXcEOGlHOmT0OJzu-Zjj-196" style="edgeStyle=orthogonalEdgeStyle;rounded=0;orthogonalLoop=1;jettySize=auto;html=1;entryX=1;entryY=0.5;entryDx=0;entryDy=0;" edge="1" parent="1" source="ZXcEOGlHOmT0OJzu-Zjj-192" target="ZXcEOGlHOmT0OJzu-Zjj-187">
          <mxGeometry relative="1" as="geometry" />
        </mxCell>
        <mxCell id="ZXcEOGlHOmT0OJzu-Zjj-192" value="&lt;span style=&quot;font-family: Calibri, sans-serif; white-space-collapse: preserve;&quot;&gt;user_id&lt;/span&gt;" style="ellipse;whiteSpace=wrap;html=1;fontSize=10;" vertex="1" parent="1">
          <mxGeometry x="294" y="240" width="60" height="30" as="geometry" />
        </mxCell>
        <mxCell id="ZXcEOGlHOmT0OJzu-Zjj-198" value="" style="endArrow=none;html=1;rounded=0;exitX=0.5;exitY=1;exitDx=0;exitDy=0;" edge="1" parent="1" source="ZXcEOGlHOmT0OJzu-Zjj-187">
          <mxGeometry width="50" height="50" relative="1" as="geometry">
            <mxPoint x="618" y="350" as="sourcePoint" />
            <mxPoint x="618" y="90" as="targetPoint" />
            <Array as="points">
              <mxPoint x="480" y="350" />
              <mxPoint x="480" y="240" />
              <mxPoint x="620" y="240" />
              <mxPoint x="618" y="200" />
            </Array>
          </mxGeometry>
        </mxCell>
        <mxCell id="ZXcEOGlHOmT0OJzu-Zjj-199" value="&lt;span style=&quot;text-wrap-mode: nowrap; color: rgba(0, 0, 0, 0); font-family: monospace; font-size: 0px; text-align: start;&quot;&gt;%3CmxGraphModel%3E%3Croot%3E%3CmxCell%20id%3D%220%22%2F%3E%3CmxCell%20id%3D%221%22%20parent%3D%220%22%2F%3E%3CmxCell%20id%3D%222%22%20value%3D%22%26lt%3Bspan%20id%3D%26quot%3Bdocs-internal-guid-ba5ba991-7fff-3a8e-a636-83ec019b827f%26quot%3B%26gt%3B%26lt%3Bspan%20style%3D%26quot%3Bfont-size%3A%2012pt%3B%20font-family%3A%20Calibri%2C%20sans-serif%3B%20background-color%3A%20transparent%3B%20font-variant-numeric%3A%20normal%3B%20font-variant-east-asian%3A%20normal%3B%20font-variant-alternates%3A%20normal%3B%20font-variant-position%3A%20normal%3B%20font-variant-emoji%3A%20normal%3B%20vertical-align%3A%20baseline%3B%20white-space-collapse%3A%20preserve%3B%26quot%3B%26gt%3Bcomment_content%26lt%3B%2Fspan%26gt%3B%26lt%3B%2Fspan%26gt%3B%22%20style%3D%22swimlane%3BfontStyle%3D0%3BchildLayout%3DstackLayout%3Bhorizontal%3D1%3BstartSize%3D30%3BhorizontalStack%3D0%3BresizeParent%3D1%3BresizeParentMax%3D0%3BresizeLast%3D0%3Bcollapsible%3D1%3BmarginBottom%3D0%3BwhiteSpace%3Dwrap%3Bhtml%3D1%3BfillColor%3Dnone%3BstrokeColor%3Ddefault%3B%22%20vertex%3D%221%22%20parent%3D%221%22%3E%3CmxGeometry%20x%3D%22390%22%20y%3D%22460%22%20width%3D%22145%22%20height%3D%22140%22%20as%3D%22geometry%22%2F%3E%3C%2FmxCell%3E%3CmxCell%20id%3D%223%22%20value%3D%22%26lt%3Bspan%20id%3D%26quot%3Bdocs-internal-guid-e7b0f1bb-7fff-4d2d-cdc1-821d41b33dc2%26quot%3B%26gt%3B%26lt%3Bspan%20style%3D%26quot%3Bfont-size%3A%2012pt%3B%20font-family%3A%20Calibri%2C%20sans-serif%3B%20background-color%3A%20transparent%3B%20font-variant-numeric%3A%20normal%3B%20font-variant-east-asian%3A%20normal%3B%20font-variant-alternates%3A%20normal%3B%20font-variant-position%3A%20normal%3B%20font-variant-emoji%3A%20normal%3B%20vertical-align%3A%20baseline%3B%20white-space%3A%20pre-wrap%3B%26quot%3B%26gt%3Bevent_id%20%26lt%3B%2Fspan%26gt%3B%26lt%3B%2Fspan%26gt%3B%26lt%3Bdiv%26gt%3B%26lt%3Bspan%26gt%3B%26lt%3Bspan%20style%3D%26quot%3Bfont-size%3A%2012pt%3B%20font-family%3A%20Calibri%2C%20sans-serif%3B%20background-color%3A%20transparent%3B%20font-variant-numeric%3A%20normal%3B%20font-variant-east-asian%3A%20normal%3B%20font-variant-alternates%3A%20normal%3B%20font-variant-position%3A%20normal%3B%20font-variant-emoji%3A%20normal%3B%20vertical-align%3A%20baseline%3B%20white-space%3A%20pre-wrap%3B%26quot%3B%26gt%3Bcomment_content%20%26lt%3B%2Fspan%26gt%3B%26lt%3B%2Fspan%26gt%3B%26lt%3B%2Fdiv%26gt%3B%26lt%3Bdiv%26gt%3B%26lt%3Bspan%26gt%3B%26lt%3Bspan%20style%3D%26quot%3Bfont-size%3A%2012pt%3B%20font-family%3A%20Calibri%2C%20sans-serif%3B%20background-color%3A%20transparent%3B%20font-variant-numeric%3A%20normal%3B%20font-variant-east-asian%3A%20normal%3B%20font-variant-alternates%3A%20normal%3B%20font-variant-position%3A%20normal%3B%20font-variant-emoji%3A%20normal%3B%20vertical-align%3A%20baseline%3B%20white-space%3A%20pre-wrap%3B%26quot%3B%26gt%3Bcomment_time%26lt%3B%2Fspan%26gt%3B%26lt%3B%2Fspan%26gt%3B%26lt%3B%2Fdiv%26gt%3B%26lt%3Bdiv%26gt%3B%26lt%3Bspan%26gt%3B%26lt%3Bspan%20style%3D%26quot%3Bfont-size%3A%2012pt%3B%20font-family%3A%20Calibri%2C%20sans-serif%3B%20background-color%3A%20transparent%3B%20font-variant-numeric%3A%20normal%3B%20font-variant-east-asian%3A%20normal%3B%20font-variant-alternates%3A%20normal%3B%20font-variant-position%3A%20normal%3B%20font-variant-emoji%3A%20normal%3B%20vertical-align%3A%20baseline%3B%20white-space%3A%20pre-wrap%3B%26quot%3B%26gt%3B%20comment_id%20%26lt%3B%2Fspan%26gt%3B%26lt%3B%2Fspan%26gt%3B%26lt%3B%2Fdiv%26gt%3B%26lt%3Bdiv%26gt%3B%26lt%3Bspan%26gt%3B%26lt%3Bspan%20style%3D%26quot%3Bfont-size%3A%2012pt%3B%20font-family%3A%20Calibri%2C%20sans-serif%3B%20background-color%3A%20transparent%3B%20font-variant-numeric%3A%20normal%3B%20font-variant-east-asian%3A%20normal%3B%20font-variant-alternates%3A%20normal%3B%20font-variant-position%3A%20normal%3B%20font-variant-emoji%3A%20normal%3B%20vertical-align%3A%20baseline%3B%20white-space%3A%20pre-wrap%3B%26quot%3B%26gt%3Buser_id%26lt%3B%2Fspan%26gt%3B%26lt%3B%2Fspan%26gt%3B%26lt%3B%2Fdiv%26gt%3B%22%20style%3D%22text%3Bhtml%3D1%3Balign%3Dcenter%3BverticalAlign%3Dmiddle%3Bresizable%3D0%3Bpoints%3D%5B%5D%3Bautosize%3D1%3BstrokeColor%3Dnone%3BfillColor%3Dnone%3B%22%20vertex%3D%221%22%20parent%3D%222%22%3E%3CmxGeometry%20y%3D%2230%22%20width%3D%22145%22%20height%3D%22110%22%20as%3D%22geometry%22%2F%3E%3C%2FmxCell%3E%3C%2Froot%3E%3C%2FmxGraphModel%3E&lt;/span&gt;&lt;span id=&quot;docs-internal-guid-e218b409-7fff-9a2e-5c22-a66aea6c74c1&quot; style=&quot;font-size: 12px;&quot;&gt;&lt;span style=&quot;font-size: 12pt; font-family: Calibri, sans-serif; background-color: transparent; font-variant-numeric: normal; font-variant-east-asian: normal; font-variant-alternates: normal; font-variant-position: normal; font-variant-emoji: normal; vertical-align: baseline; white-space-collapse: preserve;&quot;&gt;friend_requests&lt;/span&gt;&lt;/span&gt;" style="rounded=0;whiteSpace=wrap;html=1;fontSize=10;fontStyle=1" vertex="1" parent="1">
          <mxGeometry x="665" y="320" width="130" height="40" as="geometry" />
        </mxCell>
        <mxCell id="ZXcEOGlHOmT0OJzu-Zjj-200" value="&lt;div style=&quot;text-wrap-mode: nowrap;&quot;&gt;&lt;span style=&quot;font-family: Calibri, sans-serif; white-space: pre-wrap;&quot;&gt;&lt;font style=&quot;font-size: 12px;&quot;&gt;sender_id &lt;/font&gt;&lt;/span&gt;&lt;/div&gt;" style="ellipse;whiteSpace=wrap;html=1;fontSize=10;" vertex="1" parent="1">
          <mxGeometry x="560" y="260" width="60" height="30" as="geometry" />
        </mxCell>
        <mxCell id="ZXcEOGlHOmT0OJzu-Zjj-202" value="&lt;div style=&quot;text-wrap-mode: nowrap;&quot;&gt;&lt;div style=&quot;&quot;&gt;&lt;span style=&quot;font-family: Calibri, sans-serif; background-color: transparent; font-variant-numeric: normal; font-variant-east-asian: normal; font-variant-alternates: normal; font-variant-position: normal; font-variant-emoji: normal; vertical-align: baseline; white-space: pre-wrap;&quot;&gt;&lt;font style=&quot;font-size: 13px;&quot;&gt;receiver_id &lt;/font&gt;&lt;/span&gt;&lt;/div&gt;&lt;div&gt;&lt;span style=&quot;font-size: 12pt; font-family: Calibri, sans-serif; background-color: transparent; font-variant-numeric: normal; font-variant-east-asian: normal; font-variant-alternates: normal; font-variant-position: normal; font-variant-emoji: normal; vertical-align: baseline; white-space: pre-wrap;&quot;&gt;&lt;br&gt;&lt;/span&gt;&lt;/div&gt;&lt;/div&gt;" style="ellipse;whiteSpace=wrap;html=1;fontSize=10;" vertex="1" parent="1">
          <mxGeometry x="670" y="205" width="80" height="40" as="geometry" />
        </mxCell>
        <mxCell id="ZXcEOGlHOmT0OJzu-Zjj-203" value="&lt;div style=&quot;text-wrap-mode: nowrap;&quot;&gt;&lt;div style=&quot;&quot;&gt;&lt;div style=&quot;&quot;&gt;&lt;span style=&quot;font-family: Calibri, sans-serif; background-color: transparent; font-variant-numeric: normal; font-variant-east-asian: normal; font-variant-alternates: normal; font-variant-position: normal; font-variant-emoji: normal; vertical-align: baseline; white-space: pre-wrap;&quot;&gt;&lt;font style=&quot;font-size: 11px;&quot;&gt;status &lt;/font&gt;&lt;/span&gt;&lt;/div&gt;&lt;div style=&quot;font-size: 12px;&quot;&gt;&lt;span style=&quot;font-size: 12pt; font-family: Calibri, sans-serif; background-color: transparent; font-variant-numeric: normal; font-variant-east-asian: normal; font-variant-alternates: normal; font-variant-position: normal; font-variant-emoji: normal; vertical-align: baseline; white-space: pre-wrap;&quot;&gt;&lt;br&gt;&lt;/span&gt;&lt;/div&gt;&lt;/div&gt;&lt;/div&gt;" style="ellipse;whiteSpace=wrap;html=1;fontSize=10;" vertex="1" parent="1">
          <mxGeometry x="750" y="240" width="60" height="30" as="geometry" />
        </mxCell>
        <mxCell id="ZXcEOGlHOmT0OJzu-Zjj-207" value="&lt;div style=&quot;text-wrap-mode: nowrap;&quot;&gt;&lt;div style=&quot;&quot;&gt;&lt;span style=&quot;font-family: Calibri, sans-serif; white-space: pre-wrap;&quot;&gt;&lt;font style=&quot;font-size: 13px;&quot;&gt;request_date&lt;/font&gt;&lt;/span&gt;&lt;/div&gt;&lt;/div&gt;" style="ellipse;whiteSpace=wrap;html=1;fontSize=10;" vertex="1" parent="1">
          <mxGeometry x="645" y="250" width="77.5" height="40" as="geometry" />
        </mxCell>
        <mxCell id="ZXcEOGlHOmT0OJzu-Zjj-208" style="edgeStyle=orthogonalEdgeStyle;rounded=0;orthogonalLoop=1;jettySize=auto;html=1;exitX=1;exitY=1;exitDx=0;exitDy=0;entryX=0.567;entryY=0;entryDx=0;entryDy=0;entryPerimeter=0;" edge="1" parent="1" source="ZXcEOGlHOmT0OJzu-Zjj-202" target="ZXcEOGlHOmT0OJzu-Zjj-199">
          <mxGeometry relative="1" as="geometry" />
        </mxCell>
        <mxCell id="ZXcEOGlHOmT0OJzu-Zjj-209" style="edgeStyle=orthogonalEdgeStyle;rounded=0;orthogonalLoop=1;jettySize=auto;html=1;exitX=1;exitY=1;exitDx=0;exitDy=0;entryX=0.874;entryY=-0.046;entryDx=0;entryDy=0;entryPerimeter=0;" edge="1" parent="1" source="ZXcEOGlHOmT0OJzu-Zjj-203" target="ZXcEOGlHOmT0OJzu-Zjj-199">
          <mxGeometry relative="1" as="geometry" />
        </mxCell>
        <mxCell id="ZXcEOGlHOmT0OJzu-Zjj-210" style="edgeStyle=orthogonalEdgeStyle;rounded=0;orthogonalLoop=1;jettySize=auto;html=1;exitX=0.5;exitY=1;exitDx=0;exitDy=0;entryX=0.403;entryY=-0.029;entryDx=0;entryDy=0;entryPerimeter=0;" edge="1" parent="1" source="ZXcEOGlHOmT0OJzu-Zjj-207" target="ZXcEOGlHOmT0OJzu-Zjj-199">
          <mxGeometry relative="1" as="geometry" />
        </mxCell>
        <mxCell id="ZXcEOGlHOmT0OJzu-Zjj-211" style="edgeStyle=orthogonalEdgeStyle;rounded=0;orthogonalLoop=1;jettySize=auto;html=1;" edge="1" parent="1" source="ZXcEOGlHOmT0OJzu-Zjj-200">
          <mxGeometry relative="1" as="geometry">
            <mxPoint x="670" y="324" as="targetPoint" />
            <Array as="points">
              <mxPoint x="640" y="275" />
              <mxPoint x="640" y="324" />
            </Array>
          </mxGeometry>
        </mxCell>
        <mxCell id="ZXcEOGlHOmT0OJzu-Zjj-212" value="send / recevied" style="rhombus;whiteSpace=wrap;html=1;fontSize=10;" vertex="1" parent="1">
          <mxGeometry x="180" y="370" width="65" height="60" as="geometry" />
        </mxCell>
        <mxCell id="ZXcEOGlHOmT0OJzu-Zjj-213" value="" style="endArrow=none;html=1;rounded=0;entryX=0.5;entryY=1;entryDx=0;entryDy=0;exitX=0;exitY=0.5;exitDx=0;exitDy=0;" edge="1" parent="1" source="ZXcEOGlHOmT0OJzu-Zjj-212" target="ZXcEOGlHOmT0OJzu-Zjj-112">
          <mxGeometry width="50" height="50" relative="1" as="geometry">
            <mxPoint x="140" y="410" as="sourcePoint" />
            <mxPoint x="90" y="360" as="targetPoint" />
            <Array as="points">
              <mxPoint x="140" y="400" />
            </Array>
          </mxGeometry>
        </mxCell>
        <mxCell id="ZXcEOGlHOmT0OJzu-Zjj-214" value="" style="endArrow=none;html=1;rounded=0;exitX=1;exitY=0.5;exitDx=0;exitDy=0;entryX=0;entryY=0.5;entryDx=0;entryDy=0;" edge="1" parent="1" source="ZXcEOGlHOmT0OJzu-Zjj-212" target="ZXcEOGlHOmT0OJzu-Zjj-199">
          <mxGeometry width="50" height="50" relative="1" as="geometry">
            <mxPoint x="280" y="430" as="sourcePoint" />
            <mxPoint x="730" y="400" as="targetPoint" />
            <Array as="points">
              <mxPoint x="245" y="360" />
              <mxPoint x="500" y="360" />
              <mxPoint x="500" y="320" />
              <mxPoint x="590" y="320" />
              <mxPoint x="590" y="340" />
            </Array>
          </mxGeometry>
        </mxCell>
        <mxCell id="ZXcEOGlHOmT0OJzu-Zjj-223" value="" style="endArrow=none;html=1;rounded=0;entryX=0.353;entryY=1.017;entryDx=0;entryDy=0;entryPerimeter=0;exitX=0.5;exitY=0;exitDx=0;exitDy=0;" edge="1" parent="1" source="ZXcEOGlHOmT0OJzu-Zjj-224" target="ZXcEOGlHOmT0OJzu-Zjj-112">
          <mxGeometry width="50" height="50" relative="1" as="geometry">
            <mxPoint x="130" y="480" as="sourcePoint" />
            <mxPoint x="90" y="280" as="targetPoint" />
          </mxGeometry>
        </mxCell>
        <mxCell id="ZXcEOGlHOmT0OJzu-Zjj-224" value="send / recevied" style="rhombus;whiteSpace=wrap;html=1;fontSize=10;" vertex="1" parent="1">
          <mxGeometry x="95" y="480" width="65" height="60" as="geometry" />
        </mxCell>
        <mxCell id="ZXcEOGlHOmT0OJzu-Zjj-225" value="&lt;span style=&quot;font-family: Calibri, sans-serif; text-align: left; white-space-collapse: preserve;&quot;&gt;&lt;font style=&quot;font-size: 13px;&quot;&gt;message &lt;/font&gt;&lt;/span&gt;" style="ellipse;whiteSpace=wrap;html=1;fontSize=10;" vertex="1" parent="1">
          <mxGeometry x="190" y="440" width="60" height="30" as="geometry" />
        </mxCell>
        <mxCell id="ZXcEOGlHOmT0OJzu-Zjj-226" value="&lt;span style=&quot;text-align: left;&quot; id=&quot;docs-internal-guid-3e13c2b7-7fff-67fc-45ef-aeb6182bb98a&quot;&gt;&lt;span style=&quot;font-family: Calibri, sans-serif; color: rgb(0, 0, 0); background-color: transparent; font-variant-numeric: normal; font-variant-east-asian: normal; font-variant-alternates: normal; font-variant-position: normal; font-variant-emoji: normal; vertical-align: baseline; white-space-collapse: preserve;&quot;&gt;&lt;font style=&quot;font-size: 13px;&quot;&gt;user_id&lt;/font&gt;&lt;/span&gt;&lt;/span&gt;" style="ellipse;whiteSpace=wrap;html=1;fontSize=10;" vertex="1" parent="1">
          <mxGeometry x="130" y="420" width="60" height="30" as="geometry" />
        </mxCell>
        <mxCell id="ZXcEOGlHOmT0OJzu-Zjj-227" style="edgeStyle=orthogonalEdgeStyle;rounded=0;orthogonalLoop=1;jettySize=auto;html=1;entryX=0.658;entryY=0.165;entryDx=0;entryDy=0;entryPerimeter=0;" edge="1" parent="1" source="ZXcEOGlHOmT0OJzu-Zjj-226" target="ZXcEOGlHOmT0OJzu-Zjj-224">
          <mxGeometry relative="1" as="geometry" />
        </mxCell>
        <mxCell id="ZXcEOGlHOmT0OJzu-Zjj-229" style="edgeStyle=orthogonalEdgeStyle;rounded=0;orthogonalLoop=1;jettySize=auto;html=1;entryX=1.052;entryY=0.482;entryDx=0;entryDy=0;entryPerimeter=0;" edge="1" parent="1" source="ZXcEOGlHOmT0OJzu-Zjj-225" target="ZXcEOGlHOmT0OJzu-Zjj-224">
          <mxGeometry relative="1" as="geometry">
            <Array as="points">
              <mxPoint x="180" y="455" />
              <mxPoint x="180" y="509" />
            </Array>
          </mxGeometry>
        </mxCell>
        <mxCell id="ZXcEOGlHOmT0OJzu-Zjj-231" value="&lt;span style=&quot;font-family: monospace; font-size: 13.12px; text-align: left;&quot;&gt;admins&lt;/span&gt;" style="rounded=0;whiteSpace=wrap;html=1;fontSize=10;fontStyle=1" vertex="1" parent="1">
          <mxGeometry x="411" y="420" width="60" height="40" as="geometry" />
        </mxCell>
        <mxCell id="ZXcEOGlHOmT0OJzu-Zjj-232" value="&lt;span style=&quot;font-family: sans-serif; text-align: right; background-color: rgb(255, 255, 255);&quot;&gt;&lt;font style=&quot;font-size: 11px;&quot;&gt;admin_id&lt;/font&gt;&lt;/span&gt;" style="ellipse;whiteSpace=wrap;html=1;fontSize=10;" vertex="1" parent="1">
          <mxGeometry x="510" y="370" width="60" height="30" as="geometry" />
        </mxCell>
        <mxCell id="ZXcEOGlHOmT0OJzu-Zjj-242" style="edgeStyle=orthogonalEdgeStyle;rounded=0;orthogonalLoop=1;jettySize=auto;html=1;exitX=0;exitY=1;exitDx=0;exitDy=0;entryX=0.25;entryY=0;entryDx=0;entryDy=0;" edge="1" parent="1" source="ZXcEOGlHOmT0OJzu-Zjj-233" target="ZXcEOGlHOmT0OJzu-Zjj-231">
          <mxGeometry relative="1" as="geometry" />
        </mxCell>
        <mxCell id="ZXcEOGlHOmT0OJzu-Zjj-233" value="&lt;span style=&quot;font-family: sans-serif; text-align: left; background-color: rgb(255, 255, 255);&quot;&gt;&lt;font&gt;admin_username&lt;/font&gt;&lt;/span&gt;" style="ellipse;whiteSpace=wrap;html=1;fontSize=10;" vertex="1" parent="1">
          <mxGeometry x="440" y="370" width="60" height="30" as="geometry" />
        </mxCell>
        <mxCell id="ZXcEOGlHOmT0OJzu-Zjj-241" style="edgeStyle=orthogonalEdgeStyle;rounded=0;orthogonalLoop=1;jettySize=auto;html=1;exitX=0;exitY=1;exitDx=0;exitDy=0;entryX=0;entryY=0.25;entryDx=0;entryDy=0;" edge="1" parent="1" source="ZXcEOGlHOmT0OJzu-Zjj-234" target="ZXcEOGlHOmT0OJzu-Zjj-231">
          <mxGeometry relative="1" as="geometry" />
        </mxCell>
        <mxCell id="ZXcEOGlHOmT0OJzu-Zjj-234" value="&lt;span style=&quot;font-family: sans-serif; text-align: left; background-color: rgb(255, 255, 255);&quot;&gt;&lt;font&gt;admin_password&lt;/font&gt;&lt;/span&gt;" style="ellipse;whiteSpace=wrap;html=1;fontSize=10;" vertex="1" parent="1">
          <mxGeometry x="354" y="370" width="60" height="30" as="geometry" />
        </mxCell>
        <mxCell id="ZXcEOGlHOmT0OJzu-Zjj-239" style="edgeStyle=orthogonalEdgeStyle;rounded=0;orthogonalLoop=1;jettySize=auto;html=1;exitX=0.5;exitY=1;exitDx=0;exitDy=0;entryX=0;entryY=0.5;entryDx=0;entryDy=0;" edge="1" parent="1" source="ZXcEOGlHOmT0OJzu-Zjj-235" target="ZXcEOGlHOmT0OJzu-Zjj-231">
          <mxGeometry relative="1" as="geometry" />
        </mxCell>
        <mxCell id="ZXcEOGlHOmT0OJzu-Zjj-235" value="&lt;font style=&quot;font-size: 11px;&quot;&gt;&lt;br&gt;&lt;span style=&quot;color: rgb(0, 0, 0); font-family: sans-serif; font-style: normal; font-variant-ligatures: normal; font-variant-caps: normal; font-weight: 400; letter-spacing: normal; orphans: 2; text-align: left; text-indent: 0px; text-transform: none; widows: 2; word-spacing: 0px; -webkit-text-stroke-width: 0px; white-space: normal; background-color: rgb(255, 255, 255); text-decoration-thickness: initial; text-decoration-style: initial; text-decoration-color: initial; float: none; display: inline !important;&quot;&gt;email&lt;/span&gt;&lt;br&gt;&lt;/font&gt;" style="ellipse;whiteSpace=wrap;html=1;fontSize=10;" vertex="1" parent="1">
          <mxGeometry x="270" y="370" width="60" height="30" as="geometry" />
        </mxCell>
        <mxCell id="ZXcEOGlHOmT0OJzu-Zjj-243" style="edgeStyle=orthogonalEdgeStyle;rounded=0;orthogonalLoop=1;jettySize=auto;html=1;entryX=0.681;entryY=0.01;entryDx=0;entryDy=0;entryPerimeter=0;" edge="1" parent="1" source="ZXcEOGlHOmT0OJzu-Zjj-232" target="ZXcEOGlHOmT0OJzu-Zjj-231">
          <mxGeometry relative="1" as="geometry">
            <Array as="points">
              <mxPoint x="540" y="410" />
              <mxPoint x="452" y="410" />
            </Array>
          </mxGeometry>
        </mxCell>
        <mxCell id="ZXcEOGlHOmT0OJzu-Zjj-244" value="" style="endArrow=none;html=1;rounded=0;exitX=0.818;exitY=0.69;exitDx=0;exitDy=0;exitPerimeter=0;entryX=0.452;entryY=1.031;entryDx=0;entryDy=0;entryPerimeter=0;" edge="1" parent="1" source="ZXcEOGlHOmT0OJzu-Zjj-224" target="ZXcEOGlHOmT0OJzu-Zjj-231">
          <mxGeometry width="50" height="50" relative="1" as="geometry">
            <mxPoint x="280" y="580" as="sourcePoint" />
            <mxPoint x="440" y="480" as="targetPoint" />
            <Array as="points">
              <mxPoint x="200" y="520" />
              <mxPoint x="200" y="480" />
              <mxPoint x="438" y="480" />
            </Array>
          </mxGeometry>
        </mxCell>
        <mxCell id="ZXcEOGlHOmT0OJzu-Zjj-250" value="&lt;span style=&quot;text-wrap-mode: nowrap; color: rgba(0, 0, 0, 0); font-family: monospace; font-size: 0px; text-align: start;&quot;&gt;%3CmxGraphModel%3E%3Croot%3E%3CmxCell%20id%3D%220%22%2F%3E%3CmxCell%20id%3D%221%22%20parent%3D%220%22%2F%3E%3CmxCell%20id%3D%222%22%20value%3D%22%26lt%3Bspan%20id%3D%26quot%3Bdocs-internal-guid-494c9303-7fff-6fa9-a886-261d24320b85%26quot%3B%26gt%3B%26lt%3Bspan%20style%3D%26quot%3Bfont-size%3A%2012pt%3B%20font-family%3A%20Calibri%2C%20sans-serif%3B%20background-color%3A%20transparent%3B%20font-variant-numeric%3A%20normal%3B%20font-variant-east-asian%3A%20normal%3B%20font-variant-alternates%3A%20normal%3B%20font-variant-position%3A%20normal%3B%20font-variant-emoji%3A%20normal%3B%20vertical-align%3A%20baseline%3B%20white-space-collapse%3A%20preserve%3B%26quot%3B%26gt%3Bprivate_messages%26lt%3B%2Fspan%26gt%3B%26lt%3B%2Fspan%26gt%3B%22%20style%3D%22swimlane%3BfontStyle%3D0%3BchildLayout%3DstackLayout%3Bhorizontal%3D1%3BstartSize%3D30%3BhorizontalStack%3D0%3BresizeParent%3D1%3BresizeParentMax%3D0%3BresizeLast%3D0%3Bcollapsible%3D1%3BmarginBottom%3D0%3BwhiteSpace%3Dwrap%3Bhtml%3D1%3BfillColor%3Dnone%3BstrokeColor%3Ddefault%3B%22%20vertex%3D%221%22%20parent%3D%221%22%3E%3CmxGeometry%20x%3D%22322%22%20y%3D%22630%22%20width%3D%22168%22%20height%3D%22240%22%20as%3D%22geometry%22%2F%3E%3C%2FmxCell%3E%3CmxCell%20id%3D%223%22%20value%3D%22%26lt%3Bspan%20id%3D%26quot%3Bdocs-internal-guid-eb5b1b7e-7fff-8749-6c4c-f93c258c6112%26quot%3B%26gt%3B%26lt%3Bp%20style%3D%26quot%3Bline-height%3A%201.656%3B%20margin%3A%2019pt%209pt%2019pt%2014pt%3B%26quot%3B%20dir%3D%26quot%3Brtl%26quot%3B%26gt%3B%26lt%3Bspan%20style%3D%26quot%3Bfont-size%3A%2012pt%3B%20font-family%3A%20Calibri%2C%20sans-serif%3B%20background-color%3A%20transparent%3B%20font-variant-numeric%3A%20normal%3B%20font-variant-east-asian%3A%20normal%3B%20font-variant-alternates%3A%20normal%3B%20font-variant-position%3A%20normal%3B%20font-variant-emoji%3A%20normal%3B%20vertical-align%3A%20baseline%3B%20white-space%3A%20pre-wrap%3B%26quot%3B%26gt%3BSender_ID%2C%20%26lt%3B%2Fspan%26gt%3B%26lt%3B%2Fp%26gt%3B%26lt%3Bp%20style%3D%26quot%3Bline-height%3A%201.656%3B%20margin%3A%2019pt%209pt%2019pt%2014pt%3B%26quot%3B%20dir%3D%26quot%3Brtl%26quot%3B%26gt%3B%26lt%3Bspan%20style%3D%26quot%3Bfont-size%3A%2012pt%3B%20font-family%3A%20Calibri%2C%20sans-serif%3B%20background-color%3A%20transparent%3B%20font-variant-numeric%3A%20normal%3B%20font-variant-east-asian%3A%20normal%3B%20font-variant-alternates%3A%20normal%3B%20font-variant-position%3A%20normal%3B%20font-variant-emoji%3A%20normal%3B%20vertical-align%3A%20baseline%3B%20white-space%3A%20pre-wrap%3B%26quot%3B%26gt%3BReceiver_ID%2C%20Contet%2C%26lt%3B%2Fspan%26gt%3B%26lt%3B%2Fp%26gt%3B%26lt%3Bp%20style%3D%26quot%3Bline-height%3A%201.656%3B%20margin%3A%2019pt%209pt%2019pt%2014pt%3B%26quot%3B%20dir%3D%26quot%3Brtl%26quot%3B%26gt%3B%26lt%3Bspan%20style%3D%26quot%3Bfont-size%3A%2012pt%3B%20font-family%3A%20Calibri%2C%20sans-serif%3B%20background-color%3A%20transparent%3B%20font-variant-numeric%3A%20normal%3B%20font-variant-east-asian%3A%20normal%3B%20font-variant-alternates%3A%20normal%3B%20font-variant-position%3A%20normal%3B%20font-variant-emoji%3A%20normal%3B%20vertical-align%3A%20baseline%3B%20white-space%3A%20pre-wrap%3B%26quot%3B%26gt%3BMessage_id%26lt%3B%2Fspan%26gt%3B%26lt%3B%2Fp%26gt%3B%26lt%3Bdiv%26gt%3B%26lt%3Bspan%20style%3D%26quot%3Bfont-size%3A%2012pt%3B%20font-family%3A%20Calibri%2C%20sans-serif%3B%20background-color%3A%20transparent%3B%20font-variant-numeric%3A%20normal%3B%20font-variant-east-asian%3A%20normal%3B%20font-variant-alternates%3A%20normal%3B%20font-variant-position%3A%20normal%3B%20font-variant-emoji%3A%20normal%3B%20vertical-align%3A%20baseline%3B%20white-space%3A%20pre-wrap%3B%26quot%3B%26gt%3B%26lt%3Bbr%26gt%3B%26lt%3B%2Fspan%26gt%3B%26lt%3B%2Fdiv%26gt%3B%26lt%3B%2Fspan%26gt%3B%22%20style%3D%22text%3Bhtml%3D1%3Balign%3Dcenter%3BverticalAlign%3Dmiddle%3Bresizable%3D0%3Bpoints%3D%5B%5D%3Bautosize%3D1%3BstrokeColor%3Dnone%3BfillColor%3Dnone%3B%22%20vertex%3D%221%22%20parent%3D%222%22%3E%3CmxGeometry%20y%3D%2230%22%20width%3D%22168%22%20height%3D%22210%22%20as%3D%22geometry%22%2F%3E%3C%2FmxCell%3E%3C%2Froot%3E%3C%2FmxGraphModel%3E&lt;/span&gt;&lt;span style=&quot;font-size: 12px;&quot; id=&quot;docs-internal-guid-3f43e92c-7fff-ee47-dc0b-35c4d2a5c887&quot;&gt;&lt;span style=&quot;font-size: 12pt; font-family: Calibri, sans-serif; background-color: transparent; font-variant-numeric: normal; font-variant-east-asian: normal; font-variant-alternates: normal; font-variant-position: normal; font-variant-emoji: normal; vertical-align: baseline; white-space-collapse: preserve;&quot;&gt;default_images&lt;/span&gt;&lt;/span&gt;" style="rounded=0;whiteSpace=wrap;html=1;fontSize=10;fontStyle=1" vertex="1" parent="1">
          <mxGeometry x="678" y="500" width="140" height="40" as="geometry" />
        </mxCell>
        <mxCell id="ZXcEOGlHOmT0OJzu-Zjj-253" value="" style="endArrow=none;html=1;rounded=0;entryX=0.684;entryY=0.986;entryDx=0;entryDy=0;entryPerimeter=0;" edge="1" parent="1" target="ZXcEOGlHOmT0OJzu-Zjj-141">
          <mxGeometry width="50" height="50" relative="1" as="geometry">
            <mxPoint x="640" y="430" as="sourcePoint" />
            <mxPoint x="660" y="100" as="targetPoint" />
            <Array as="points">
              <mxPoint x="640" y="360" />
              <mxPoint x="550" y="360" />
              <mxPoint x="550" y="250" />
              <mxPoint x="650" y="250" />
            </Array>
          </mxGeometry>
        </mxCell>
        <mxCell id="ZXcEOGlHOmT0OJzu-Zjj-254" value="&lt;b&gt;Has&lt;/b&gt;" style="rhombus;whiteSpace=wrap;html=1;fontSize=10;" vertex="1" parent="1">
          <mxGeometry x="607.5" y="425" width="65" height="60" as="geometry" />
        </mxCell>
        <mxCell id="ZXcEOGlHOmT0OJzu-Zjj-260" style="edgeStyle=orthogonalEdgeStyle;rounded=0;orthogonalLoop=1;jettySize=auto;html=1;exitX=1;exitY=1;exitDx=0;exitDy=0;entryX=0;entryY=0.5;entryDx=0;entryDy=0;" edge="1" parent="1" source="ZXcEOGlHOmT0OJzu-Zjj-255" target="ZXcEOGlHOmT0OJzu-Zjj-250">
          <mxGeometry relative="1" as="geometry" />
        </mxCell>
        <mxCell id="ZXcEOGlHOmT0OJzu-Zjj-255" value="&lt;span style=&quot;font-family: Calibri, sans-serif; white-space-collapse: preserve;&quot;&gt;&lt;font style=&quot;font-size: 13px;&quot;&gt;Category_events&lt;/font&gt;&lt;/span&gt;" style="ellipse;whiteSpace=wrap;html=1;fontSize=10;" vertex="1" parent="1">
          <mxGeometry x="520" y="480" width="60" height="30" as="geometry" />
        </mxCell>
        <mxCell id="ZXcEOGlHOmT0OJzu-Zjj-256" value="&lt;span style=&quot;font-family: Calibri, sans-serif; font-size: 16px; white-space-collapse: preserve;&quot;&gt;Img&lt;/span&gt;" style="ellipse;whiteSpace=wrap;html=1;fontSize=10;" vertex="1" parent="1">
          <mxGeometry x="530" y="540" width="60" height="30" as="geometry" />
        </mxCell>
        <mxCell id="ZXcEOGlHOmT0OJzu-Zjj-258" value="" style="endArrow=none;html=1;rounded=0;exitX=1;exitY=0;exitDx=0;exitDy=0;" edge="1" parent="1" source="ZXcEOGlHOmT0OJzu-Zjj-254">
          <mxGeometry width="50" height="50" relative="1" as="geometry">
            <mxPoint x="720" y="480" as="sourcePoint" />
            <mxPoint x="760" y="500" as="targetPoint" />
            <Array as="points">
              <mxPoint x="760" y="440" />
            </Array>
          </mxGeometry>
        </mxCell>
        <mxCell id="ZXcEOGlHOmT0OJzu-Zjj-261" style="edgeStyle=orthogonalEdgeStyle;rounded=0;orthogonalLoop=1;jettySize=auto;html=1;exitX=1;exitY=0.5;exitDx=0;exitDy=0;entryX=0.027;entryY=0.867;entryDx=0;entryDy=0;entryPerimeter=0;" edge="1" parent="1" source="ZXcEOGlHOmT0OJzu-Zjj-256" target="ZXcEOGlHOmT0OJzu-Zjj-250">
          <mxGeometry relative="1" as="geometry" />
        </mxCell>
        <mxCell id="ZXcEOGlHOmT0OJzu-Zjj-262" value="" style="endArrow=none;html=1;rounded=0;" edge="1" parent="1">
          <mxGeometry width="50" height="50" relative="1" as="geometry">
            <mxPoint x="40" y="320" as="sourcePoint" />
            <mxPoint x="130" y="320" as="targetPoint" />
          </mxGeometry>
        </mxCell>
        <mxCell id="ZXcEOGlHOmT0OJzu-Zjj-263" value="" style="endArrow=none;html=1;rounded=0;" edge="1" parent="1">
          <mxGeometry width="50" height="50" relative="1" as="geometry">
            <mxPoint x="40" y="640" as="sourcePoint" />
            <mxPoint x="40" y="320" as="targetPoint" />
          </mxGeometry>
        </mxCell>
        <mxCell id="ZXcEOGlHOmT0OJzu-Zjj-267" value="&lt;span style=&quot;font-family: Calibri, sans-serif; font-size: 16px; white-space-collapse: preserve;&quot;&gt;private_messages&lt;/span&gt;" style="rounded=0;whiteSpace=wrap;html=1;fontSize=10;fontStyle=1" vertex="1" parent="1">
          <mxGeometry x="154" y="620" width="140" height="40" as="geometry" />
        </mxCell>
        <mxCell id="ZXcEOGlHOmT0OJzu-Zjj-278" style="edgeStyle=orthogonalEdgeStyle;rounded=0;orthogonalLoop=1;jettySize=auto;html=1;exitX=0.5;exitY=1;exitDx=0;exitDy=0;entryX=0.25;entryY=0;entryDx=0;entryDy=0;" edge="1" parent="1" source="ZXcEOGlHOmT0OJzu-Zjj-268" target="ZXcEOGlHOmT0OJzu-Zjj-267">
          <mxGeometry relative="1" as="geometry" />
        </mxCell>
        <mxCell id="ZXcEOGlHOmT0OJzu-Zjj-268" value="&lt;span style=&quot;font-family: Calibri, sans-serif; white-space-collapse: preserve;&quot;&gt;&lt;font style=&quot;font-size: 13px;&quot;&gt;Sender_ID&lt;/font&gt;&lt;/span&gt;" style="ellipse;whiteSpace=wrap;html=1;fontSize=10;" vertex="1" parent="1">
          <mxGeometry x="210" y="540" width="60" height="30" as="geometry" />
        </mxCell>
        <mxCell id="ZXcEOGlHOmT0OJzu-Zjj-269" value="&lt;span style=&quot;font-family: Calibri, sans-serif; white-space-collapse: preserve;&quot;&gt;&lt;font style=&quot;font-size: 13px;&quot;&gt;Receiver_ID&lt;/font&gt;&lt;/span&gt;" style="ellipse;whiteSpace=wrap;html=1;fontSize=10;" vertex="1" parent="1">
          <mxGeometry x="290" y="550" width="60" height="30" as="geometry" />
        </mxCell>
        <mxCell id="ZXcEOGlHOmT0OJzu-Zjj-270" value="&lt;span style=&quot;font-family: Calibri, sans-serif; white-space-collapse: preserve;&quot;&gt;&lt;font style=&quot;font-size: 13px;&quot;&gt;Message_id&lt;/font&gt;&lt;/span&gt;" style="ellipse;whiteSpace=wrap;html=1;fontSize=10;" vertex="1" parent="1">
          <mxGeometry x="400" y="650" width="60" height="30" as="geometry" />
        </mxCell>
        <mxCell id="ZXcEOGlHOmT0OJzu-Zjj-279" style="edgeStyle=orthogonalEdgeStyle;rounded=0;orthogonalLoop=1;jettySize=auto;html=1;exitX=0;exitY=0.5;exitDx=0;exitDy=0;entryX=1;entryY=0.5;entryDx=0;entryDy=0;" edge="1" parent="1" source="ZXcEOGlHOmT0OJzu-Zjj-271" target="ZXcEOGlHOmT0OJzu-Zjj-267">
          <mxGeometry relative="1" as="geometry" />
        </mxCell>
        <mxCell id="ZXcEOGlHOmT0OJzu-Zjj-271" value="&lt;span style=&quot;font-family: Calibri, sans-serif; white-space-collapse: preserve;&quot;&gt;&lt;font style=&quot;font-size: 13px;&quot;&gt;Content&lt;/font&gt;&lt;/span&gt;" style="ellipse;whiteSpace=wrap;html=1;fontSize=10;" vertex="1" parent="1">
          <mxGeometry x="411" y="580" width="60" height="30" as="geometry" />
        </mxCell>
        <mxCell id="ZXcEOGlHOmT0OJzu-Zjj-277" value="" style="endArrow=none;html=1;rounded=0;" edge="1" parent="1" target="ZXcEOGlHOmT0OJzu-Zjj-266">
          <mxGeometry width="50" height="50" relative="1" as="geometry">
            <mxPoint x="40" y="640" as="sourcePoint" />
            <mxPoint x="390" y="640" as="targetPoint" />
          </mxGeometry>
        </mxCell>
        <mxCell id="ZXcEOGlHOmT0OJzu-Zjj-266" value="send / recevied" style="rhombus;whiteSpace=wrap;html=1;fontSize=10;" vertex="1" parent="1">
          <mxGeometry x="60" y="610" width="65" height="60" as="geometry" />
        </mxCell>
        <mxCell id="ZXcEOGlHOmT0OJzu-Zjj-281" style="edgeStyle=orthogonalEdgeStyle;rounded=0;orthogonalLoop=1;jettySize=auto;html=1;entryX=0.83;entryY=-0.066;entryDx=0;entryDy=0;entryPerimeter=0;" edge="1" parent="1" source="ZXcEOGlHOmT0OJzu-Zjj-269" target="ZXcEOGlHOmT0OJzu-Zjj-267">
          <mxGeometry relative="1" as="geometry" />
        </mxCell>
        <mxCell id="ZXcEOGlHOmT0OJzu-Zjj-282" style="edgeStyle=orthogonalEdgeStyle;rounded=0;orthogonalLoop=1;jettySize=auto;html=1;entryX=0.939;entryY=1.082;entryDx=0;entryDy=0;entryPerimeter=0;" edge="1" parent="1" source="ZXcEOGlHOmT0OJzu-Zjj-270" target="ZXcEOGlHOmT0OJzu-Zjj-267">
          <mxGeometry relative="1" as="geometry" />
        </mxCell>
        <mxCell id="ZXcEOGlHOmT0OJzu-Zjj-286" value="" style="endArrow=none;html=1;rounded=0;entryX=1;entryY=0.5;entryDx=0;entryDy=0;exitX=0;exitY=0.5;exitDx=0;exitDy=0;" edge="1" parent="1" source="ZXcEOGlHOmT0OJzu-Zjj-267" target="ZXcEOGlHOmT0OJzu-Zjj-266">
          <mxGeometry width="50" height="50" relative="1" as="geometry">
            <mxPoint x="320" y="600" as="sourcePoint" />
            <mxPoint x="370" y="550" as="targetPoint" />
          </mxGeometry>
        </mxCell>
        <mxCell id="ZXcEOGlHOmT0OJzu-Zjj-288" value="1" style="text;html=1;align=center;verticalAlign=middle;resizable=0;points=[];autosize=1;strokeColor=none;fillColor=none;" vertex="1" parent="1">
          <mxGeometry x="190" y="80" width="30" height="30" as="geometry" />
        </mxCell>
        <mxCell id="ZXcEOGlHOmT0OJzu-Zjj-289" value="1" style="text;html=1;align=center;verticalAlign=middle;resizable=0;points=[];autosize=1;strokeColor=none;fillColor=none;" vertex="1" parent="1">
          <mxGeometry x="290" y="78" width="30" height="30" as="geometry" />
        </mxCell>
        <mxCell id="ZXcEOGlHOmT0OJzu-Zjj-290" value="1" style="text;html=1;align=center;verticalAlign=middle;resizable=0;points=[];autosize=1;strokeColor=none;fillColor=none;" vertex="1" parent="1">
          <mxGeometry x="445" y="80" width="30" height="30" as="geometry" />
        </mxCell>
        <mxCell id="ZXcEOGlHOmT0OJzu-Zjj-292" value="M" style="text;html=1;align=center;verticalAlign=middle;resizable=0;points=[];autosize=1;strokeColor=none;fillColor=none;" vertex="1" parent="1">
          <mxGeometry x="570" y="80" width="30" height="30" as="geometry" />
        </mxCell>
        <mxCell id="ZXcEOGlHOmT0OJzu-Zjj-293" value="N" style="text;html=1;align=center;verticalAlign=middle;resizable=0;points=[];autosize=1;strokeColor=none;fillColor=none;" vertex="1" parent="1">
          <mxGeometry x="40" y="600" width="30" height="30" as="geometry" />
        </mxCell>
        <mxCell id="ZXcEOGlHOmT0OJzu-Zjj-294" value="M" style="text;html=1;align=center;verticalAlign=middle;resizable=0;points=[];autosize=1;strokeColor=none;fillColor=none;" vertex="1" parent="1">
          <mxGeometry x="124" y="600" width="30" height="30" as="geometry" />
        </mxCell>
        <mxCell id="ZXcEOGlHOmT0OJzu-Zjj-295" value="N" style="text;html=1;align=center;verticalAlign=middle;resizable=0;points=[];autosize=1;strokeColor=none;fillColor=none;" vertex="1" parent="1">
          <mxGeometry x="90" y="430" width="30" height="30" as="geometry" />
        </mxCell>
        <mxCell id="ZXcEOGlHOmT0OJzu-Zjj-296" value="M" style="text;html=1;align=center;verticalAlign=middle;resizable=0;points=[];autosize=1;strokeColor=none;fillColor=none;" vertex="1" parent="1">
          <mxGeometry x="210" y="495" width="30" height="30" as="geometry" />
        </mxCell>
        <mxCell id="ZXcEOGlHOmT0OJzu-Zjj-297" value="1" style="text;html=1;align=center;verticalAlign=middle;resizable=0;points=[];autosize=1;strokeColor=none;fillColor=none;" vertex="1" parent="1">
          <mxGeometry x="160" y="290" width="30" height="30" as="geometry" />
        </mxCell>
        <mxCell id="ZXcEOGlHOmT0OJzu-Zjj-298" value="M" style="text;html=1;align=center;verticalAlign=middle;resizable=0;points=[];autosize=1;strokeColor=none;fillColor=none;" vertex="1" parent="1">
          <mxGeometry x="441" y="320" width="30" height="30" as="geometry" />
        </mxCell>
        <mxCell id="ZXcEOGlHOmT0OJzu-Zjj-299" value="N" style="text;html=1;align=center;verticalAlign=middle;resizable=0;points=[];autosize=1;strokeColor=none;fillColor=none;" vertex="1" parent="1">
          <mxGeometry x="600" y="305" width="30" height="30" as="geometry" />
        </mxCell>
        <mxCell id="ZXcEOGlHOmT0OJzu-Zjj-300" value="M" style="text;html=1;align=center;verticalAlign=middle;resizable=0;points=[];autosize=1;strokeColor=none;fillColor=none;" vertex="1" parent="1">
          <mxGeometry x="154" y="360" width="30" height="30" as="geometry" />
        </mxCell>
        <mxCell id="ZXcEOGlHOmT0OJzu-Zjj-301" value="N" style="text;html=1;align=center;verticalAlign=middle;resizable=0;points=[];autosize=1;strokeColor=none;fillColor=none;" vertex="1" parent="1">
          <mxGeometry x="645" y="388" width="30" height="30" as="geometry" />
        </mxCell>
        <mxCell id="ZXcEOGlHOmT0OJzu-Zjj-302" value="1" style="text;html=1;align=center;verticalAlign=middle;resizable=0;points=[];autosize=1;strokeColor=none;fillColor=none;" vertex="1" parent="1">
          <mxGeometry x="692.5" y="450" width="30" height="30" as="geometry" />
        </mxCell>
      </root>
    </mxGraphModel>
  </diagram>
</mxfile>
